<svg width="45" height="38" viewBox="0 0 45 38" fill="none" xmlns="http://www.w3.org/2000/svg">
<path d="M42.5331 31.2151C42.7368 30.8624 42.8636 30.474 43.0569 30.124C43.3503 29.7638 43.5202 29.3193 43.5423 28.8539C43.4371 28.0702 42.6388 27.7051 41.9939 27.3502C42.5219 26.4357 43.0101 25.4982 43.5418 24.5771C43.919 23.9239 44.7424 22.9883 44.675 22.2004C44.5429 20.8961 42.6095 19.9366 41.4998 19.2523C41.5903 19.0956 41.6808 18.9388 41.7676 18.7885C42.9204 16.3012 41.8341 15.1776 39.5418 13.828C36.9925 12.3561 35.827 12.8416 34.2363 15.1981C32.9655 17.0773 31.781 19.0064 30.6418 20.9181C28.0989 19.7112 25.6653 17.9316 23.2033 16.5538C21.1055 15.3426 19.001 14.1275 16.8352 13.0339C17.9667 11.0742 18.992 9.11427 19.9614 7.11328C21.1955 4.57707 21.0559 3.28579 18.4953 1.83355C16.7161 0.806324 14.7923 -0.0778896 13.4097 1.78031C13.1662 2.11006 12.936 2.44747 12.7124 2.78872C11.5971 2.14479 9.90586 1.07254 8.79137 1.50039C7.37228 2.05721 6.18464 5.00349 5.48119 6.19123L5.40576 6.32188C4.93574 5.96028 4.39606 5.69913 3.82137 5.55519C2.89015 5.43562 2.44864 6.84427 2.09322 7.47521C1.73781 8.10614 0.890699 9.03675 1.61585 9.68188C2.00558 10.0168 2.4336 10.3048 2.89082 10.5399C2.00535 11.9929 1.30271 13.5497 0.798352 15.1761C0.260619 17.104 1.89753 18.0404 3.47199 18.9929C3.34753 19.2085 3.22308 19.4241 3.12804 19.6653C2.08822 21.8956 3.19073 22.7151 5.07721 23.8478C6.29211 24.5492 7.9514 26.0908 9.35193 25.3055C10.1813 24.8349 10.8153 23.5374 11.2802 22.7781C12.3206 21.1142 13.2916 19.4016 14.2257 17.6764L14.4595 17.2714C19.0411 19.8381 23.4965 22.7153 28.1703 25.0915C27.2916 26.6135 26.4166 28.129 25.5303 29.6641C24.9646 30.644 24.0982 31.8073 23.8738 32.9319C23.5008 34.8505 25.6231 35.6054 27.0722 36.4072C28.6987 37.3463 29.9973 38.2093 31.4099 36.56C31.7131 36.2152 31.988 35.8468 32.2319 35.4581C33.7456 36.332 35.4053 37.2902 36.7796 35.9063C37.8838 34.7031 38.8129 33.352 39.5404 31.8912C40.0244 32.2482 40.5874 32.4836 41.1804 32.5768C41.9344 32.6201 42.2637 31.7738 42.5331 31.2151ZM2.41816 9.01282C2.60552 8.58099 2.91599 8.15056 3.14228 7.75862C3.28559 7.5104 3.42514 7.2687 3.56468 7.027C3.60239 6.96168 3.8394 6.68916 3.79474 6.62853C4.0117 6.73239 4.22036 6.85286 4.41879 6.98883C4.57148 7.07698 4.72417 7.16514 4.87022 7.24946C4.41388 8.03987 3.89221 8.83611 3.39619 9.66458C3.04594 9.48601 2.71765 9.26723 2.41816 9.01282ZM2.03536 14.8886C2.34975 14.09 2.73208 13.3201 3.17823 12.5872C4.21008 10.57 5.25068 8.64493 6.3803 6.71904C6.99394 5.47396 7.74048 4.29913 8.60728 3.21444C9.68023 2.09196 10.871 2.98848 12.1275 3.67911C10.862 5.77911 9.81192 8.07319 8.56146 10.1471C6.99978 12.7293 5.29612 15.3428 3.88999 18.0236C2.43987 17.1777 1.51633 16.7228 2.03913 14.8821L2.03536 14.8886ZM9.9035 22.8629C9.26763 23.811 8.96653 24.5778 7.74969 24.2324C7.02363 23.9046 6.33188 23.5052 5.68502 23.0403C5.10945 22.765 4.64329 22.3041 4.36384 21.7341C4.08439 21.164 4.00844 20.519 4.14858 19.9061C4.39897 18.9359 5.38863 17.835 5.85704 16.947C7.06389 14.8567 8.21764 12.7357 9.47761 10.676C10.2734 9.29768 11.0692 7.91937 11.8251 6.51806C12.4587 5.42063 13.1578 4.37843 13.7772 3.29024C14.8143 1.49385 16.2602 1.77991 17.9294 2.75233C18.3799 3.01072 18.7653 3.36841 19.0552 3.79728C19.3452 4.22614 19.5319 4.7145 19.6005 5.22394C19.6247 5.79533 18.9074 6.73118 18.6284 7.27563C18.0697 8.38142 17.4711 9.46421 16.8895 10.5481C15.765 12.6338 14.6311 14.7052 13.4667 16.7679C12.3024 18.8305 11.2234 20.8988 9.90727 22.8564L9.9035 22.8629ZM14.9544 16.3377C15.4107 15.5473 15.867 14.7569 16.3272 13.9599C18.4636 15.0889 20.5757 16.2909 22.682 17.4721C25.1184 18.8788 27.5709 20.6257 30.1072 21.8288C29.6471 22.6257 29.1907 23.4161 28.7344 24.2065C23.9979 21.7855 19.5425 18.9083 14.9581 16.3312L14.9544 16.3377ZM38.7735 21.92C37.9379 23.2753 37.1156 24.6383 36.3464 26.0319C35.2548 28.0146 34.0835 29.9513 32.9521 31.911C31.7037 34.0732 30.7535 37.2523 27.5935 35.4889C27.0757 35.1899 25.9999 34.8301 25.6019 34.339C24.5585 32.9266 25.4217 32.014 26.0467 30.8855C27.1383 28.9028 28.2358 27.0019 29.3882 25.0979C30.5406 23.1938 31.7873 21.1265 33.0115 19.1594C34.33 17.029 35.8083 12.9354 38.9883 14.7713C40.8737 15.8599 41.2391 16.8982 40.4206 19.0212C39.9586 20.0316 39.4088 20.9993 38.7773 21.9134L38.7735 21.92ZM37.6626 32.7058C37.3041 33.4015 36.8746 34.0581 36.3806 34.6656C35.0998 35.9642 34.1691 35.3224 32.7836 34.5486C33.3418 33.5818 33.8088 32.5275 34.335 31.6468C35.3156 29.9484 36.2886 28.2631 37.2692 26.5647C38.455 24.4187 39.8448 22.3642 41.0145 20.2002C41.5984 20.5159 42.1452 20.8959 42.6443 21.3328C43.5178 22.2116 43.4812 22.3211 42.9236 23.5321C42.2276 25.029 41.2416 26.4456 40.4659 27.8964C39.5618 29.5083 38.6511 31.1164 37.6664 32.6992L37.6626 32.7058ZM40.0872 30.944C40.5377 30.0718 40.974 29.2088 41.4123 28.4342C41.4387 28.3884 41.4689 28.3362 41.4991 28.2839L42.163 28.6672C42.475 28.8474 42.5156 28.7924 42.469 29.0878C42.36 29.3459 42.2194 29.5894 42.0503 29.8128C41.8995 30.0741 41.7989 30.3557 41.6679 30.6285C41.537 30.9013 41.4266 31.0466 41.2908 31.2818C41.244 31.3504 41.2024 31.4225 41.1663 31.4973C41.1323 31.4854 41.1007 31.4672 41.0734 31.4437C40.7301 31.2716 40.3964 31.1138 40.0872 30.944Z" fill="white" fill-opacity="0.2"/>
</svg>
