<svg width="33" height="32" viewBox="0 0 33 32" fill="none" xmlns="http://www.w3.org/2000/svg">
<path d="M22.1764 0.738481C18.5796 1.13521 15.3378 3.96577 15.0057 7.52498C13.9422 6.14206 12.4297 5.16751 10.7233 4.76562C7.92371 4.06416 5.52546 4.68976 3.18356 6.48535C1.39352 7.86657 0.402502 10.5023 0.0814008 12.6523C-0.332882 15.3717 0.998396 18.2073 2.32547 20.4941C2.37795 20.5799 2.46234 20.6417 2.56046 20.6661C2.65859 20.6905 2.7626 20.6757 2.8501 20.6247C2.93759 20.5738 3.00158 20.4908 3.02827 20.3937C3.05497 20.2966 3.04223 20.1931 2.99282 20.1055C0.791584 16.2838 -0.243414 11.696 2.7983 7.92677C4.22792 6.16016 7.16115 4.88656 9.37349 5.25204C11.6932 5.63413 14.2431 6.91845 15.0239 9.27789C15.0589 9.36489 15.1248 9.43602 15.2092 9.47782C15.2936 9.51962 15.3906 9.5292 15.4819 9.50474C15.5732 9.48029 15.6524 9.42349 15.7046 9.3451C15.7567 9.2667 15.7783 9.17214 15.7651 9.0793C14.9777 4.58393 19.7775 0.785875 24.0636 1.55399C28.614 2.37034 31.7633 7.29885 31.5233 11.735C31.3766 14.5357 27.8726 14.7885 25.6841 15.3862C24.4364 15.7206 23.1941 16.0534 21.9518 16.3863C21.7865 16.4306 21.0987 16.6149 21.12 16.6092C20.8916 16.5457 19.991 15.2106 19.7915 14.9352C19.7431 14.8576 19.6683 14.7998 19.5806 14.7722C19.493 14.7447 19.3982 14.7492 19.3133 14.7849C19.2284 14.8207 19.1591 14.8853 19.1177 14.9672C19.0764 15.049 19.0658 15.1428 19.0879 15.2315C19.3597 17.2056 19.3508 19.1983 19.4541 21.1835C18.2197 18.1121 17.2198 14.9779 15.8446 11.9782C15.6828 11.6303 15.1141 11.811 15.1248 12.1711C15.2553 14.5063 15.3549 16.8403 15.4238 19.1732L13.9166 16.2996C13.7513 15.981 13.1577 16.1117 13.2022 16.491C13.2639 17.0415 13.4989 18.4301 13.236 18.7501C13.0454 18.9769 12.1163 19.0501 11.8071 19.1329L7.76021 20.2173C6.28862 20.6116 3.88847 20.9315 4.534 23.106C4.87502 24.2508 6.25859 25.1275 7.17604 25.8003C8.5111 26.7465 9.95343 27.5341 11.4737 28.1473C14.5781 29.4532 17.8606 30.2294 21.0839 31.1688C21.1494 31.1861 21.2183 31.186 21.2838 31.1685C21.3493 31.1509 21.4091 31.1166 21.4571 31.0688C25.648 27.0817 28.9786 22.2897 31.2447 16.9866C31.444 16.5363 30.7812 16.1525 30.5697 16.6004C29.0784 20.2166 27.0616 23.5978 24.5839 26.636C23.7712 27.591 22.0936 30.1385 20.834 30.3002C20.2316 30.3766 19.228 29.8516 18.6421 29.6911C17.735 29.4408 16.8332 29.1892 15.9378 28.9187C13.953 28.3472 12.0212 27.6091 10.1634 26.7123C9.06038 26.1573 3.48348 23.1097 6.16434 21.4274C7.18264 20.7917 9.08085 20.6459 10.2432 20.3345L13.7036 19.4073C13.784 19.3844 13.855 19.3365 13.9063 19.2708C13.9576 19.205 13.9864 19.1247 13.9885 19.0417C14.004 18.7371 14.0089 18.4352 14.0151 18.1387L15.5237 21.0176C15.5673 21.0875 15.6324 21.1414 15.7094 21.1716C15.7865 21.2017 15.8713 21.2064 15.9514 21.1849C16.0315 21.1635 16.1027 21.117 16.1543 21.0524C16.2059 20.9878 16.2354 20.9084 16.2382 20.8261C16.1702 18.6103 16.0981 16.3936 16.0221 14.1761C17.3169 17.3447 18.3575 20.6098 19.7799 23.7216C19.975 24.1513 20.5361 23.8138 20.4848 23.4306C20.1706 21.1276 20.2282 18.8044 20.0504 16.4989C20.2195 16.7525 20.4541 16.9562 20.7298 17.0888C21.0056 17.2213 21.3123 17.2779 21.6182 17.2525C23.3753 17.0709 25.2758 16.2725 26.9767 15.8167C28.5389 15.3981 30.7076 15.1743 31.7279 13.7782C32.6212 12.5692 32.4142 10.9009 32.17 9.52038C31.3561 4.86201 27.3896 0.146785 22.1764 0.738481Z" fill="white" fill-opacity="0.15"/>
</svg>
