<svg width="280" height="153" viewBox="0 0 280 153" fill="none" xmlns="http://www.w3.org/2000/svg">
<g clip-path="url(#clip0_140_4217)">
<path d="M174.767 77.4216C175.166 77.4465 175.387 76.9502 175.085 76.6611L175.054 76.5416C175.058 76.532 175.062 76.5225 175.066 76.513C175.304 75.9446 175.961 75.6755 176.53 75.911C178.331 76.6554 176.43 78.3661 176.572 79.5237C176.623 79.9233 178.188 79.9452 178.099 80.3373C178.931 78.5178 179.369 76.531 179.368 74.5332C179.368 74.0312 179.34 73.5293 179.284 73.0286C179.238 72.6191 179.174 72.212 179.091 71.8087C178.645 69.6288 177.679 67.5526 176.286 65.8187C175.617 65.4531 176.025 64.8811 175.688 64.1957C175.566 63.9485 174.485 63.9429 174.44 63.672C174.489 63.6783 175.187 62.9526 174.957 62.5939C174.805 62.3578 174.852 62.0572 175.047 61.8554C175.066 61.8356 175.084 61.8147 175.101 61.7922C175.677 61.0104 176.472 61.1466 176.887 62.2087C177.773 62.6554 177.781 63.3969 177.238 64.1102C176.893 64.564 176.845 65.178 176.542 65.6638C176.573 65.7037 176.606 65.7424 176.637 65.7824C177.21 66.5164 177.705 67.3054 178.123 68.1343C178.004 67.2129 178.178 66.1028 178.475 65.3872C178.815 64.5659 179.455 63.875 180.015 63.1646C180.685 62.3162 182.047 62.7012 182.166 63.7754C182.167 63.7857 182.168 63.796 182.169 63.8063C182.086 63.8531 182.005 63.9029 181.926 63.9554C181.473 64.2547 181.63 64.9557 182.166 65.0381L182.178 65.04C182.148 65.3384 181.089 66.2786 181.014 66.5695C181.731 69.3357 181.195 69.7009 178.991 69.7472L178.875 69.9119C179.084 70.5124 179.252 71.1272 179.378 71.7499C179.497 72.328 179.58 72.9124 179.626 73.4992C179.684 74.2396 179.679 74.9838 179.617 75.7231L179.621 75.6968C179.779 74.8827 180.221 74.1221 180.863 73.5949C181.818 72.8092 183.169 72.5195 184.2 71.8879C184.697 71.5838 185.333 71.9763 185.247 72.552L185.242 72.5795C185.089 72.642 184.939 72.7145 184.794 72.7957C184.711 72.8425 184.63 72.8923 184.551 72.9449C184.098 73.2442 184.255 73.9454 184.791 74.0275L184.803 74.0293C184.812 74.0306 184.82 74.0318 184.828 74.0331C184.565 74.6587 182.057 75.5413 181.598 76.0422C181.151 78.4583 181.37 78.3864 179.314 77.6835H179.313C179.089 78.6626 178.761 79.6191 178.339 80.5308L174.855 80.532C174.843 80.4933 174.831 80.4533 174.82 80.4146C175.142 80.4345 175.467 80.4157 175.784 80.3569C175.526 80.0398 175.267 79.7202 175.008 79.4032C175.002 79.3969 174.997 79.3907 174.992 79.3844L174.988 79.3796L174.63 78.1989C174.658 77.937 174.704 77.6772 174.767 77.4216Z" fill="#F2F2F2"/>
<path d="M137.953 80.5043L107.126 80.5149C105.577 80.5155 104.19 79.7152 103.415 78.3743C103.028 77.7037 102.834 76.9682 102.834 76.2324C102.833 75.4968 103.027 74.761 103.414 74.0903L118.817 46.049C119.591 44.7075 120.978 43.9063 122.527 43.9058C124.075 43.9053 125.462 44.7054 126.237 46.0464L141.662 74.0806C142.049 74.7493 142.242 75.484 142.242 76.2193C142.242 76.9545 142.049 77.6902 141.662 78.361C140.888 79.7025 139.501 80.5037 137.953 80.5043ZM103.221 76.2319C103.221 76.9016 106.623 75.4586 106.975 76.0686C107.68 77.2885 105.717 80.1288 107.126 80.1283C107.126 80.1283 140.623 79.3882 141.327 78.1678C141.679 77.5576 141.855 76.8882 141.855 76.2189C141.854 75.5497 141.678 74.8805 141.325 74.2705L125.901 46.2364C125.198 45.02 123.936 44.292 122.527 44.2924C121.118 44.2929 103.221 75.5622 103.221 76.2319Z" fill="#020202"/>
<path d="M138.295 80.1172C137.909 80.8906 156.006 80.6529 156.22 80.6529C156.22 80.6529 161.307 80.5405 161.414 80.3552C161.467 80.2625 161.494 80.1608 161.494 80.0592C161.494 79.9576 161.467 79.856 161.413 79.7633L159.071 75.5062C158.964 75.3215 158.773 75.211 158.559 75.211C158.55 75.211 158.537 75.2189 158.52 75.2341C155.395 78.0264 151.544 79.8724 147.354 79.9347C142.898 80.0009 138.319 80.0681 138.295 80.1172Z" fill="#020202"/>
<path d="M89.2847 80.6316C89.2847 80.7592 89.3872 80.8617 89.5148 80.8616L190.485 80.8267C190.613 80.8266 190.715 80.7242 190.715 80.5966C190.715 80.469 190.613 80.3665 190.485 80.3666L89.5147 80.4015C89.3871 80.4015 89.2846 80.504 89.2847 80.6316Z" fill="#CCCCCC"/>
<path d="M167.363 79.5144L165.615 79.5149L164.781 72.7707L167.361 72.77L167.363 79.5144Z" fill="#A0616A"/>
<path d="M161.373 79.4766C161.318 79.5683 161.29 79.8643 161.29 79.9709C161.29 80.2987 161.555 80.5643 161.883 80.5642L167.298 80.5623C167.522 80.5622 167.703 80.3809 167.703 80.1573L167.703 79.9318C167.703 79.9318 167.971 79.2542 167.419 78.4192C167.419 78.4192 166.734 79.0734 165.709 78.0495L165.407 77.5024L163.221 79.1022L162.009 79.2518C161.744 79.2845 161.509 79.2469 161.373 79.4766Z" fill="#020202"/>
<path d="M160.659 73.7477L159.002 74.3081L156.052 68.1863L158.497 67.3591L160.659 73.7477Z" fill="#A0616A"/>
<path d="M154.972 75.6309C154.949 75.7352 155.017 76.0247 155.051 76.1257C155.156 76.4362 155.493 76.6027 155.804 76.4976L160.933 74.7615C161.145 74.6898 161.258 74.46 161.187 74.2482L161.114 74.0347C161.114 74.0347 161.151 73.307 160.361 72.6927C160.361 72.6927 159.921 73.5319 158.623 72.8901L158.161 72.4686L156.603 74.6842L155.503 75.214C155.262 75.3299 155.027 75.3696 154.972 75.6309Z" fill="#020202"/>
<path d="M157.958 34.6221L154.566 45.8543L150.562 55.9576L156.901 70.386L159.251 69.3404L156.439 56.0862L162.337 47.0923L165.089 75.1689L167.44 75.0375L170.627 41.1474L171.082 33.7687L157.958 34.6221Z" fill="#020202"/>
<path d="M168.201 9.73959L163.239 10.6555L162.848 12.8757L159.844 14.3133L158.283 30.638C158.283 30.638 155.672 34.0343 157.762 35.0783L171.082 33.7678C171.082 33.7678 171.734 31.3531 171.081 31.124C170.428 30.895 170.426 25.1273 170.426 25.1273L173.426 13.2638L168.985 11.6982L168.201 9.73959Z" fill="#E6E6E6"/>
<path d="M165.274 9.69807C167.487 9.69807 169.281 7.90403 169.281 5.69096C169.281 3.47789 167.487 1.68384 165.274 1.68384C163.061 1.68384 161.267 3.47789 161.267 5.69096C161.267 7.90403 163.061 9.69807 165.274 9.69807Z" fill="#A0616A"/>
<path d="M167.928 6.28536C167.608 6.46042 167.911 7.29619 167.711 7.36844C167.48 7.45196 166.638 6.49324 166.628 5.41941C166.625 5.0944 166.699 4.93835 166.627 4.55301C166.533 4.04895 166.245 3.45444 165.977 3.47023C165.819 3.47958 165.664 3.70361 165.653 3.90354C165.636 4.18374 165.909 4.29403 165.869 4.44497C165.795 4.73246 164.652 4.93094 164.245 4.44553C163.926 4.06497 164.17 3.39681 164.028 3.3626C163.923 3.33738 163.81 3.70525 163.378 4.12093C163.216 4.27754 162.974 4.51045 162.837 4.44602C162.639 4.3529 162.783 3.69665 162.728 3.68795C162.683 3.68075 162.655 4.14201 162.404 4.55447C162.081 5.08437 161.415 5.49281 161.104 5.31302C160.914 5.20287 160.899 4.89621 160.888 4.66329C160.863 4.17261 160.15 3.04394 160.335 2.51902C160.71 1.45066 161.354 2.20376 161.645 1.84722C162.039 1.36455 162.392 1.62406 163.052 1.08863C163.697 0.565566 163.703 0.0398442 164.135 0.00524717C164.524 -0.0259087 164.662 0.389047 165.11 0.329811C165.489 0.27963 165.571 -0.0422116 165.868 0.00464594C166.139 0.0475443 166.157 0.33107 166.518 0.437623C166.748 0.50565 166.799 0.407188 167.059 0.437436C167.602 0.500374 167.966 0.994366 168.034 1.0869C168.297 1.44363 168.195 1.59407 168.468 1.95315C168.703 2.26282 169.223 2.13132 169.419 2.28598C170.059 2.79135 170.334 3.72333 170.339 4.78557C170.343 5.52853 170.246 5.90391 170.03 6.84169C169.866 7.55377 169.106 8.47398 168.687 8.88431C168.574 8.99446 168.259 9.30325 168.037 9.20944C167.827 9.12055 167.82 8.72079 167.82 8.66801C167.819 8.48648 167.868 8.26186 168.253 7.69316C168.658 7.09578 168.819 7.0276 168.794 6.82656C168.751 6.4712 168.183 6.14583 167.928 6.28536Z" fill="#020202"/>
<path d="M153.95 43.6441C153.825 44.6885 154.263 45.5996 154.928 45.6789C155.592 45.7583 156.232 44.976 156.357 43.9315C156.411 43.4743 156.358 43.0427 156.225 42.6952L156.698 38.2629L154.614 38.0853L154.369 42.4735C154.158 42.7799 154.005 43.1869 153.95 43.6441Z" fill="#A0616A"/>
<path d="M159.942 14.2097C159.942 14.2097 158.862 14.225 158.147 15.6217C157.767 16.3638 155.734 30.2422 155.734 30.2422L153.861 41.6113L157.052 41.6273L159.538 30.8606L161.629 24.6161L159.942 14.2097Z" fill="#E6E6E6"/>
<path d="M168.92 41.9764C168.614 42.983 168.886 43.9565 169.527 44.1509C170.167 44.3453 170.934 43.687 171.239 42.6805C171.373 42.2399 171.396 41.8056 171.326 41.4402L172.567 37.159L170.546 36.6194L169.537 40.8972C169.276 41.162 169.054 41.5359 168.92 41.9764Z" fill="#A0616A"/>
<path d="M171.14 13.4608C171.14 13.4608 172.707 12.2849 174.014 14.1128C175.32 15.9406 175.848 30.9587 175.848 30.9587L172.194 40.2321L169.452 39.3189L172.06 27.9563L167.486 19.3388L171.14 13.4608Z" fill="#E6E6E6"/>
<path d="M131.522 74.3206C139.316 74.3206 145.634 68.0022 145.634 60.208C145.634 52.4139 139.316 46.0955 131.522 46.0955C123.728 46.0955 117.409 52.4139 117.409 60.208C117.409 68.0022 123.728 74.3206 131.522 74.3206Z" fill="#CF0B10"/>
<path d="M131.525 68.8581C132.24 68.8581 132.821 68.2779 132.821 67.5623C132.821 66.8467 132.24 66.2665 131.525 66.2665C130.809 66.2665 130.229 66.8467 130.229 67.5623C130.229 68.2779 130.809 68.8581 131.525 68.8581Z" fill="white"/>
<path d="M131.519 51.5569C131.4 52.3478 131.613 52.5133 131.615 55.9231C131.616 59.3329 132.323 63.9046 131.523 63.9049C130.724 63.9051 130.431 54.4702 127.654 53.6351C124.388 52.6533 131.904 48.9965 131.519 51.5569Z" fill="white"/>
<path d="M112.581 67.4115L111.306 70.1055C112.847 69.0002 115.255 68.0474 117.171 67.5371C115.385 66.6748 113.201 65.2845 111.896 63.9081L112.629 66.7546C104.032 65.0034 97.8574 58.4076 97.8548 50.852L97.5442 50.7452C97.5469 58.6372 103.636 65.6235 112.581 67.4115Z" fill="#020202"/>
</g>
<path d="M67.4879 124.861V113.225H69.9482V122.833H74.9368V124.861H67.4879ZM80.4638 125.032C79.5812 125.032 78.8179 124.844 78.174 124.469C77.5339 124.09 77.0395 123.564 76.6911 122.89C76.3426 122.212 76.1683 121.426 76.1683 120.532C76.1683 119.63 76.3426 118.842 76.6911 118.168C77.0395 117.49 77.5339 116.964 78.174 116.589C78.8179 116.21 79.5812 116.02 80.4638 116.02C81.3464 116.02 82.1077 116.21 82.7479 116.589C83.3918 116.964 83.888 117.49 84.2365 118.168C84.585 118.842 84.7592 119.63 84.7592 120.532C84.7592 121.426 84.585 122.212 84.2365 122.89C83.888 123.564 83.3918 124.09 82.7479 124.469C82.1077 124.844 81.3464 125.032 80.4638 125.032ZM80.4751 123.157C80.8767 123.157 81.2119 123.043 81.4808 122.816C81.7498 122.585 81.9524 122.27 82.0888 121.873C82.2289 121.475 82.299 121.022 82.299 120.515C82.299 120.007 82.2289 119.555 82.0888 119.157C81.9524 118.759 81.7498 118.445 81.4808 118.214C81.2119 117.983 80.8767 117.867 80.4751 117.867C80.0698 117.867 79.7289 117.983 79.4524 118.214C79.1797 118.445 78.9732 118.759 78.8331 119.157C78.6967 119.555 78.6286 120.007 78.6286 120.515C78.6286 121.022 78.6967 121.475 78.8331 121.873C78.9732 122.27 79.1797 122.585 79.4524 122.816C79.7289 123.043 80.0698 123.157 80.4751 123.157ZM90.2763 125.032C89.3823 125.032 88.6134 124.842 87.9695 124.464C87.3293 124.081 86.8369 123.551 86.4922 122.873C86.1513 122.195 85.9808 121.414 85.9808 120.532C85.9808 119.638 86.1532 118.854 86.4979 118.18C86.8464 117.501 87.3407 116.973 87.9808 116.594C88.621 116.212 89.3823 116.02 90.2649 116.02C91.0263 116.02 91.6929 116.159 92.2649 116.435C92.8369 116.712 93.2895 117.1 93.6229 117.6C93.9562 118.1 94.1399 118.687 94.174 119.361H91.8899C91.8255 118.926 91.6551 118.575 91.3786 118.31C91.1058 118.041 90.7479 117.907 90.3047 117.907C89.9297 117.907 89.602 118.009 89.3217 118.214C89.0452 118.414 88.8293 118.708 88.674 119.094C88.5187 119.481 88.4411 119.948 88.4411 120.498C88.4411 121.055 88.5168 121.528 88.6683 121.918C88.8236 122.308 89.0414 122.606 89.3217 122.81C89.602 123.015 89.9297 123.117 90.3047 123.117C90.5812 123.117 90.8293 123.06 91.049 122.947C91.2725 122.833 91.4562 122.668 91.6001 122.452C91.7479 122.233 91.8445 121.969 91.8899 121.662H94.174C94.1361 122.329 93.9543 122.916 93.6286 123.424C93.3066 123.928 92.8615 124.322 92.2933 124.606C91.7251 124.89 91.0528 125.032 90.2763 125.032ZM98.2124 125.026C97.6555 125.026 97.1593 124.93 96.7237 124.736C96.2881 124.539 95.9434 124.25 95.6896 123.867C95.4396 123.481 95.3146 123 95.3146 122.424C95.3146 121.939 95.4036 121.532 95.5817 121.202C95.7597 120.873 96.0021 120.608 96.3089 120.407C96.6158 120.206 96.9643 120.055 97.3544 119.952C97.7483 119.85 98.1612 119.778 98.593 119.736C99.1006 119.683 99.5097 119.634 99.8203 119.589C100.131 119.539 100.356 119.467 100.496 119.373C100.637 119.278 100.707 119.138 100.707 118.952V118.918C100.707 118.558 100.593 118.28 100.366 118.083C100.142 117.886 99.8241 117.787 99.4112 117.787C98.9756 117.787 98.629 117.884 98.3714 118.077C98.1139 118.267 97.9434 118.505 97.8601 118.793L95.6214 118.611C95.7351 118.081 95.9586 117.623 96.2919 117.236C96.6252 116.846 97.0552 116.547 97.5817 116.339C98.112 116.126 98.7256 116.02 99.4226 116.02C99.9074 116.02 100.371 116.077 100.815 116.191C101.262 116.305 101.657 116.481 102.002 116.719C102.351 116.958 102.625 117.265 102.826 117.64C103.027 118.011 103.127 118.456 103.127 118.975V124.861H100.832V123.651H100.763C100.623 123.924 100.436 124.164 100.201 124.373C99.9661 124.577 99.6839 124.738 99.3544 124.856C99.0249 124.969 98.6442 125.026 98.2124 125.026ZM98.9055 123.356C99.2616 123.356 99.576 123.286 99.8487 123.145C100.121 123.001 100.335 122.808 100.491 122.566C100.646 122.323 100.724 122.049 100.724 121.742V120.816C100.648 120.865 100.544 120.911 100.411 120.952C100.282 120.99 100.137 121.026 99.9737 121.06C99.8108 121.09 99.648 121.119 99.4851 121.145C99.3222 121.168 99.1745 121.189 99.0419 121.208C98.7578 121.25 98.5097 121.316 98.2976 121.407C98.0855 121.498 97.9207 121.621 97.8033 121.776C97.6858 121.928 97.6271 122.117 97.6271 122.344C97.6271 122.674 97.7464 122.926 97.9851 123.1C98.2275 123.27 98.5343 123.356 98.9055 123.356ZM109.647 116.134V117.952H104.391V116.134H109.647ZM105.585 114.043H108.005V122.18C108.005 122.403 108.039 122.577 108.107 122.702C108.175 122.823 108.27 122.909 108.391 122.958C108.516 123.007 108.66 123.032 108.823 123.032C108.937 123.032 109.05 123.022 109.164 123.003C109.278 122.981 109.365 122.964 109.425 122.952L109.806 124.753C109.685 124.791 109.514 124.835 109.295 124.884C109.075 124.937 108.808 124.969 108.494 124.981C107.91 125.003 107.399 124.926 106.96 124.748C106.524 124.57 106.185 124.293 105.942 123.918C105.7 123.543 105.581 123.07 105.585 122.498V114.043ZM111.224 124.861V116.134H113.644V124.861H111.224ZM112.44 115.009C112.08 115.009 111.771 114.89 111.513 114.651C111.26 114.409 111.133 114.119 111.133 113.782C111.133 113.448 111.26 113.162 111.513 112.924C111.771 112.681 112.08 112.56 112.44 112.56C112.799 112.56 113.106 112.681 113.36 112.924C113.618 113.162 113.746 113.448 113.746 113.782C113.746 114.119 113.618 114.409 113.36 114.651C113.106 114.89 112.799 115.009 112.44 115.009ZM119.526 125.032C118.644 125.032 117.88 124.844 117.237 124.469C116.596 124.09 116.102 123.564 115.754 122.89C115.405 122.212 115.231 121.426 115.231 120.532C115.231 119.63 115.405 118.842 115.754 118.168C116.102 117.49 116.596 116.964 117.237 116.589C117.88 116.21 118.644 116.02 119.526 116.02C120.409 116.02 121.17 116.21 121.81 116.589C122.454 116.964 122.951 117.49 123.299 118.168C123.647 118.842 123.822 119.63 123.822 120.532C123.822 121.426 123.647 122.212 123.299 122.89C122.951 123.564 122.454 124.09 121.81 124.469C121.17 124.844 120.409 125.032 119.526 125.032ZM119.538 123.157C119.939 123.157 120.274 123.043 120.543 122.816C120.812 122.585 121.015 122.27 121.151 121.873C121.291 121.475 121.362 121.022 121.362 120.515C121.362 120.007 121.291 119.555 121.151 119.157C121.015 118.759 120.812 118.445 120.543 118.214C120.274 117.983 119.939 117.867 119.538 117.867C119.132 117.867 118.791 117.983 118.515 118.214C118.242 118.445 118.036 118.759 117.896 119.157C117.759 119.555 117.691 120.007 117.691 120.515C117.691 121.022 117.759 121.475 117.896 121.873C118.036 122.27 118.242 122.585 118.515 122.816C118.791 123.043 119.132 123.157 119.538 123.157ZM127.816 119.816V124.861H125.396V116.134H127.702V117.674H127.805C127.998 117.166 128.322 116.765 128.776 116.469C129.231 116.17 129.782 116.02 130.43 116.02C131.036 116.02 131.564 116.153 132.015 116.418C132.466 116.683 132.816 117.062 133.066 117.555C133.316 118.043 133.441 118.626 133.441 119.305V124.861H131.021V119.736C131.024 119.202 130.888 118.786 130.612 118.486C130.335 118.183 129.954 118.032 129.469 118.032C129.144 118.032 128.856 118.102 128.606 118.242C128.36 118.382 128.166 118.587 128.026 118.856C127.89 119.121 127.82 119.441 127.816 119.816ZM141.472 119.816V124.861H139.052V116.134H141.359V117.674H141.461C141.654 117.166 141.978 116.765 142.433 116.469C142.887 116.17 143.438 116.02 144.086 116.02C144.692 116.02 145.22 116.153 145.671 116.418C146.122 116.683 146.472 117.062 146.722 117.555C146.972 118.043 147.097 118.626 147.097 119.305V124.861H144.677V119.736C144.681 119.202 144.544 118.786 144.268 118.486C143.991 118.183 143.611 118.032 143.126 118.032C142.8 118.032 142.512 118.102 142.262 118.242C142.016 118.382 141.823 118.587 141.683 118.856C141.546 119.121 141.476 119.441 141.472 119.816ZM152.948 125.032C152.066 125.032 151.302 124.844 150.658 124.469C150.018 124.09 149.524 123.564 149.175 122.89C148.827 122.212 148.653 121.426 148.653 120.532C148.653 119.63 148.827 118.842 149.175 118.168C149.524 117.49 150.018 116.964 150.658 116.589C151.302 116.21 152.066 116.02 152.948 116.02C153.831 116.02 154.592 116.21 155.232 116.589C155.876 116.964 156.372 117.49 156.721 118.168C157.069 118.842 157.244 119.63 157.244 120.532C157.244 121.426 157.069 122.212 156.721 122.89C156.372 123.564 155.876 124.09 155.232 124.469C154.592 124.844 153.831 125.032 152.948 125.032ZM152.96 123.157C153.361 123.157 153.696 123.043 153.965 122.816C154.234 122.585 154.437 122.27 154.573 121.873C154.713 121.475 154.783 121.022 154.783 120.515C154.783 120.007 154.713 119.555 154.573 119.157C154.437 118.759 154.234 118.445 153.965 118.214C153.696 117.983 153.361 117.867 152.96 117.867C152.554 117.867 152.213 117.983 151.937 118.214C151.664 118.445 151.458 118.759 151.317 119.157C151.181 119.555 151.113 120.007 151.113 120.515C151.113 121.022 151.181 121.475 151.317 121.873C151.458 122.27 151.664 122.585 151.937 122.816C152.213 123.043 152.554 123.157 152.96 123.157ZM163.46 116.134V117.952H158.204V116.134H163.46ZM159.397 114.043H161.817V122.18C161.817 122.403 161.852 122.577 161.92 122.702C161.988 122.823 162.083 122.909 162.204 122.958C162.329 123.007 162.473 123.032 162.636 123.032C162.749 123.032 162.863 123.022 162.977 123.003C163.09 122.981 163.177 122.964 163.238 122.952L163.619 124.753C163.497 124.791 163.327 124.835 163.107 124.884C162.888 124.937 162.621 124.969 162.306 124.981C161.723 125.003 161.211 124.926 160.772 124.748C160.336 124.57 159.997 124.293 159.755 123.918C159.513 123.543 159.393 123.07 159.397 122.498V114.043ZM173.433 116.134V117.952H168.046V116.134H173.433ZM169.279 124.861V115.503C169.279 114.871 169.402 114.346 169.648 113.93C169.898 113.513 170.239 113.2 170.671 112.992C171.103 112.784 171.594 112.68 172.143 112.68C172.514 112.68 172.853 112.708 173.16 112.765C173.47 112.822 173.701 112.873 173.853 112.918L173.421 114.736C173.326 114.706 173.209 114.678 173.069 114.651C172.933 114.625 172.792 114.611 172.648 114.611C172.292 114.611 172.044 114.695 171.904 114.861C171.764 115.024 171.694 115.253 171.694 115.549V124.861H169.279ZM178.542 125.032C177.659 125.032 176.896 124.844 176.252 124.469C175.612 124.09 175.118 123.564 174.769 122.89C174.421 122.212 174.246 121.426 174.246 120.532C174.246 119.63 174.421 118.842 174.769 118.168C175.118 117.49 175.612 116.964 176.252 116.589C176.896 116.21 177.659 116.02 178.542 116.02C179.424 116.02 180.186 116.21 180.826 116.589C181.47 116.964 181.966 117.49 182.315 118.168C182.663 118.842 182.837 119.63 182.837 120.532C182.837 121.426 182.663 122.212 182.315 122.89C181.966 123.564 181.47 124.09 180.826 124.469C180.186 124.844 179.424 125.032 178.542 125.032ZM178.553 123.157C178.955 123.157 179.29 123.043 179.559 122.816C179.828 122.585 180.031 122.27 180.167 121.873C180.307 121.475 180.377 121.022 180.377 120.515C180.377 120.007 180.307 119.555 180.167 119.157C180.031 118.759 179.828 118.445 179.559 118.214C179.29 117.983 178.955 117.867 178.553 117.867C178.148 117.867 177.807 117.983 177.531 118.214C177.258 118.445 177.051 118.759 176.911 119.157C176.775 119.555 176.707 120.007 176.707 120.515C176.707 121.022 176.775 121.475 176.911 121.873C177.051 122.27 177.258 122.585 177.531 122.816C177.807 123.043 178.148 123.157 178.553 123.157ZM190.008 121.145V116.134H192.428V124.861H190.104V123.276H190.013C189.817 123.787 189.489 124.198 189.031 124.509C188.576 124.82 188.021 124.975 187.366 124.975C186.782 124.975 186.269 124.842 185.826 124.577C185.383 124.312 185.036 123.935 184.786 123.447C184.54 122.958 184.415 122.373 184.411 121.691V116.134H186.832V121.259C186.835 121.774 186.974 122.181 187.246 122.481C187.519 122.78 187.885 122.93 188.343 122.93C188.635 122.93 188.907 122.863 189.161 122.731C189.415 122.594 189.62 122.394 189.775 122.128C189.934 121.863 190.012 121.536 190.008 121.145ZM196.785 119.816V124.861H194.364V116.134H196.671V117.674H196.773C196.967 117.166 197.29 116.765 197.745 116.469C198.2 116.17 198.751 116.02 199.398 116.02C200.004 116.02 200.533 116.153 200.984 116.418C201.434 116.683 201.785 117.062 202.035 117.555C202.285 118.043 202.41 118.626 202.41 119.305V124.861H199.989V119.736C199.993 119.202 199.857 118.786 199.58 118.486C199.304 118.183 198.923 118.032 198.438 118.032C198.112 118.032 197.825 118.102 197.575 118.242C197.328 118.382 197.135 118.587 196.995 118.856C196.859 119.121 196.789 119.441 196.785 119.816ZM207.533 125.003C206.871 125.003 206.27 124.833 205.732 124.492C205.198 124.147 204.774 123.642 204.46 122.975C204.149 122.305 203.994 121.483 203.994 120.509C203.994 119.509 204.155 118.678 204.477 118.015C204.799 117.348 205.227 116.85 205.761 116.52C206.299 116.187 206.888 116.02 207.528 116.02C208.016 116.02 208.424 116.104 208.749 116.27C209.079 116.433 209.344 116.638 209.545 116.884C209.749 117.126 209.905 117.365 210.011 117.6H210.085V113.225H212.499V124.861H210.113V123.464H210.011C209.897 123.706 209.736 123.947 209.528 124.185C209.323 124.42 209.056 124.615 208.727 124.77C208.401 124.926 208.003 125.003 207.533 125.003ZM208.3 123.077C208.691 123.077 209.02 122.971 209.289 122.759C209.562 122.543 209.77 122.242 209.914 121.856C210.062 121.469 210.136 121.017 210.136 120.498C210.136 119.979 210.064 119.528 209.92 119.145C209.776 118.763 209.567 118.467 209.295 118.259C209.022 118.051 208.691 117.947 208.3 117.947C207.903 117.947 207.567 118.055 207.295 118.27C207.022 118.486 206.816 118.786 206.675 119.168C206.535 119.551 206.465 119.994 206.465 120.498C206.465 121.005 206.535 121.454 206.675 121.844C206.819 122.231 207.026 122.534 207.295 122.753C207.567 122.969 207.903 123.077 208.3 123.077Z" fill="#222222"/>
<path d="M48.0041 149.861V141.134H50.9529C51.6376 141.134 52.1973 141.258 52.6319 141.505C53.0694 141.749 53.3933 142.08 53.6035 142.498C53.8137 142.915 53.9189 143.381 53.9189 143.895C53.9189 144.41 53.8137 144.877 53.6035 145.297C53.3961 145.718 53.0751 146.053 52.6404 146.303C52.2058 146.55 51.649 146.674 50.97 146.674H48.8564V145.736H50.9359C51.4047 145.736 51.7811 145.655 52.0652 145.493C52.3493 145.331 52.5552 145.113 52.6831 144.837C52.8137 144.559 52.8791 144.245 52.8791 143.895C52.8791 143.546 52.8137 143.233 52.6831 142.958C52.5552 142.682 52.3478 142.466 52.0609 142.31C51.774 142.151 51.3933 142.072 50.9189 142.072H49.0609V149.861H48.0041ZM56.4906 141.134V149.861H55.4849V141.134H56.4906ZM61.0769 149.998C60.4462 149.998 59.9022 149.858 59.4448 149.58C58.9902 149.299 58.6394 148.907 58.3922 148.404C58.1479 147.898 58.0257 147.31 58.0257 146.64C58.0257 145.969 58.1479 145.378 58.3922 144.867C58.6394 144.353 58.9831 143.952 59.4235 143.665C59.8667 143.376 60.3837 143.231 60.9746 143.231C61.3155 143.231 61.6522 143.287 61.9846 143.401C62.3169 143.515 62.6195 143.699 62.8922 143.955C63.165 144.208 63.3823 144.543 63.5442 144.961C63.7061 145.378 63.7871 145.893 63.7871 146.503V146.93H58.7417V146.06H62.7644C62.7644 145.691 62.6905 145.361 62.5428 145.072C62.3979 144.782 62.1905 144.553 61.9206 144.385C61.6536 144.218 61.3382 144.134 60.9746 144.134C60.574 144.134 60.2275 144.233 59.9348 144.432C59.6451 144.628 59.4221 144.884 59.2658 145.199C59.1096 145.515 59.0314 145.853 59.0314 146.214V146.793C59.0314 147.287 59.1167 147.706 59.2871 148.05C59.4604 148.391 59.7005 148.651 60.0073 148.83C60.3141 149.006 60.6706 149.094 61.0769 149.094C61.3411 149.094 61.5797 149.057 61.7928 148.983C62.0087 148.907 62.1948 148.793 62.351 148.643C62.5073 148.489 62.628 148.299 62.7132 148.072L63.6848 148.344C63.5826 148.674 63.4107 148.964 63.1692 149.214C62.9277 149.461 62.6294 149.654 62.2743 149.793C61.9192 149.93 61.5201 149.998 61.0769 149.998ZM67.2431 150.015C66.8283 150.015 66.4519 149.937 66.1138 149.78C65.7757 149.621 65.5073 149.393 65.3084 149.094C65.1096 148.793 65.0101 148.43 65.0101 148.003C65.0101 147.628 65.084 147.324 65.2317 147.091C65.3794 146.856 65.5769 146.671 65.824 146.537C66.0712 146.404 66.3439 146.305 66.6422 146.239C66.9434 146.171 67.2459 146.117 67.5499 146.077C67.9476 146.026 68.2701 145.988 68.5172 145.962C68.7672 145.934 68.949 145.887 69.0627 145.822C69.1792 145.756 69.2374 145.643 69.2374 145.481V145.447C69.2374 145.026 69.1223 144.699 68.8922 144.466C68.665 144.233 68.3198 144.117 67.8567 144.117C67.3766 144.117 67.0002 144.222 66.7275 144.432C66.4547 144.643 66.263 144.867 66.1522 145.106L65.1976 144.765C65.3681 144.367 65.5953 144.057 65.8794 143.836C66.1664 143.611 66.4789 143.455 66.8169 143.367C67.1578 143.276 67.4931 143.231 67.8226 143.231C68.0328 143.231 68.2743 143.256 68.5471 143.307C68.8226 143.356 69.0882 143.456 69.3439 143.61C69.6025 143.763 69.8169 143.995 69.9874 144.305C70.1578 144.614 70.2431 145.029 70.2431 145.549V149.861H69.2374V148.975H69.1863C69.1181 149.117 69.0044 149.269 68.8453 149.431C68.6863 149.593 68.4746 149.731 68.2104 149.844C67.9462 149.958 67.6238 150.015 67.2431 150.015ZM67.3965 149.111C67.7942 149.111 68.1294 149.033 68.4022 148.877C68.6777 148.721 68.8851 148.519 69.0243 148.272C69.1664 148.025 69.2374 147.765 69.2374 147.492V146.572C69.1948 146.623 69.101 146.67 68.9561 146.712C68.8141 146.752 68.6493 146.787 68.4618 146.819C68.2772 146.847 68.0968 146.873 67.9206 146.895C67.7473 146.915 67.6067 146.932 67.4988 146.947C67.2374 146.981 66.9931 147.036 66.7658 147.113C66.5414 147.187 66.3596 147.299 66.2203 147.449C66.084 147.597 66.0158 147.799 66.0158 148.055C66.0158 148.404 66.1451 148.668 66.4036 148.847C66.665 149.023 66.9959 149.111 67.3965 149.111ZM76.715 144.782L75.8116 145.037C75.7548 144.887 75.671 144.741 75.5602 144.599C75.4522 144.454 75.3045 144.334 75.117 144.241C74.9295 144.147 74.6895 144.1 74.3968 144.1C73.9963 144.1 73.6625 144.192 73.3954 144.377C73.1312 144.559 72.9991 144.79 72.9991 145.072C72.9991 145.322 73.09 145.519 73.2718 145.664C73.4537 145.809 73.7377 145.93 74.1241 146.026L75.0957 146.265C75.6809 146.407 76.117 146.624 76.4039 146.917C76.6909 147.206 76.8343 147.58 76.8343 148.037C76.8343 148.412 76.7264 148.748 76.5105 149.043C76.2974 149.339 75.9991 149.572 75.6156 149.742C75.2321 149.912 74.786 149.998 74.2775 149.998C73.6099 149.998 73.0574 149.853 72.6199 149.563C72.1824 149.273 71.9054 148.85 71.7889 148.293L72.7434 148.055C72.8343 148.407 73.0062 148.671 73.2591 148.847C73.5147 149.023 73.8485 149.111 74.2605 149.111C74.7292 149.111 75.1014 149.012 75.377 148.813C75.6554 148.611 75.7946 148.37 75.7946 148.089C75.7946 147.861 75.715 147.671 75.5559 147.518C75.3968 147.361 75.1525 147.245 74.823 147.168L73.7321 146.912C73.1326 146.77 72.6923 146.55 72.411 146.252C72.1326 145.951 71.9934 145.574 71.9934 145.123C71.9934 144.753 72.0971 144.427 72.3045 144.143C72.5147 143.858 72.8002 143.635 73.161 143.474C73.5247 143.312 73.9366 143.231 74.3968 143.231C75.0446 143.231 75.5531 143.373 75.9224 143.657C76.2946 143.941 76.5588 144.316 76.715 144.782ZM81.0925 149.998C80.4618 149.998 79.9178 149.858 79.4604 149.58C79.0059 149.299 78.655 148.907 78.4078 148.404C78.1635 147.898 78.0414 147.31 78.0414 146.64C78.0414 145.969 78.1635 145.378 78.4078 144.867C78.655 144.353 78.9988 143.952 79.4391 143.665C79.8823 143.376 80.3993 143.231 80.9902 143.231C81.3311 143.231 81.6678 143.287 82.0002 143.401C82.3326 143.515 82.6351 143.699 82.9078 143.955C83.1806 144.208 83.3979 144.543 83.5598 144.961C83.7218 145.378 83.8027 145.893 83.8027 146.503V146.93H78.7573V146.06H82.78C82.78 145.691 82.7061 145.361 82.5584 145.072C82.4135 144.782 82.2061 144.553 81.9363 144.385C81.6692 144.218 81.3539 144.134 80.9902 144.134C80.5897 144.134 80.2431 144.233 79.9505 144.432C79.6607 144.628 79.4377 144.884 79.2814 145.199C79.1252 145.515 79.0471 145.853 79.0471 146.214V146.793C79.0471 147.287 79.1323 147.706 79.3027 148.05C79.476 148.391 79.7161 148.651 80.0229 148.83C80.3297 149.006 80.6863 149.094 81.0925 149.094C81.3567 149.094 81.5953 149.057 81.8084 148.983C82.0243 148.907 82.2104 148.793 82.3667 148.643C82.5229 148.489 82.6436 148.299 82.7289 148.072L83.7005 148.344C83.5982 148.674 83.4263 148.964 83.1848 149.214C82.9434 149.461 82.6451 149.654 82.29 149.793C81.9348 149.93 81.5357 149.998 81.0925 149.998ZM93.3439 144.782L92.4405 145.037C92.3837 144.887 92.2999 144.741 92.1891 144.599C92.0811 144.454 91.9334 144.334 91.7459 144.241C91.5584 144.147 91.3184 144.1 91.0257 144.1C90.6252 144.1 90.2914 144.192 90.0243 144.377C89.7601 144.559 89.628 144.79 89.628 145.072C89.628 145.322 89.7189 145.519 89.9007 145.664C90.0826 145.809 90.3667 145.93 90.753 146.026L91.7246 146.265C92.3098 146.407 92.7459 146.624 93.0328 146.917C93.3198 147.206 93.4632 147.58 93.4632 148.037C93.4632 148.412 93.3553 148.748 93.1394 149.043C92.9263 149.339 92.628 149.572 92.2445 149.742C91.861 149.912 91.415 149.998 90.9064 149.998C90.2388 149.998 89.6863 149.853 89.2488 149.563C88.8113 149.273 88.5343 148.85 88.4178 148.293L89.3723 148.055C89.4632 148.407 89.6351 148.671 89.888 148.847C90.1436 149.023 90.4775 149.111 90.8894 149.111C91.3581 149.111 91.7303 149.012 92.0059 148.813C92.2843 148.611 92.4235 148.37 92.4235 148.089C92.4235 147.861 92.3439 147.671 92.1848 147.518C92.0257 147.361 91.7814 147.245 91.4519 147.168L90.361 146.912C89.7615 146.77 89.3212 146.55 89.04 146.252C88.7615 145.951 88.6223 145.574 88.6223 145.123C88.6223 144.753 88.726 144.427 88.9334 144.143C89.1436 143.858 89.4292 143.635 89.79 143.474C90.1536 143.312 90.5655 143.231 91.0257 143.231C91.6735 143.231 92.182 143.373 92.5513 143.657C92.9235 143.941 93.1877 144.316 93.3439 144.782ZM97.7214 149.998C97.0907 149.998 96.5467 149.858 96.0893 149.58C95.6348 149.299 95.2839 148.907 95.0368 148.404C94.7924 147.898 94.6703 147.31 94.6703 146.64C94.6703 145.969 94.7924 145.378 95.0368 144.867C95.2839 144.353 95.6277 143.952 96.068 143.665C96.5112 143.376 97.0282 143.231 97.6191 143.231C97.96 143.231 98.2967 143.287 98.6291 143.401C98.9615 143.515 99.264 143.699 99.5368 143.955C99.8095 144.208 100.027 144.543 100.189 144.961C100.351 145.378 100.432 145.893 100.432 146.503V146.93H95.3862V146.06H99.4089C99.4089 145.691 99.335 145.361 99.1873 145.072C99.0424 144.782 98.835 144.553 98.5652 144.385C98.2981 144.218 97.9828 144.134 97.6191 144.134C97.2186 144.134 96.872 144.233 96.5794 144.432C96.2896 144.628 96.0666 144.884 95.9103 145.199C95.7541 145.515 95.676 145.853 95.676 146.214V146.793C95.676 147.287 95.7612 147.706 95.9316 148.05C96.1049 148.391 96.345 148.651 96.6518 148.83C96.9586 149.006 97.3152 149.094 97.7214 149.094C97.9856 149.094 98.2243 149.057 98.4373 148.983C98.6532 148.907 98.8393 148.793 98.9956 148.643C99.1518 148.489 99.2725 148.299 99.3578 148.072L100.329 148.344C100.227 148.674 100.055 148.964 99.8137 149.214C99.5723 149.461 99.274 149.654 98.9189 149.793C98.5637 149.93 98.1646 149.998 97.7214 149.998ZM103.888 150.015C103.473 150.015 103.096 149.937 102.758 149.78C102.42 149.621 102.152 149.393 101.953 149.094C101.754 148.793 101.655 148.43 101.655 148.003C101.655 147.628 101.729 147.324 101.876 147.091C102.024 146.856 102.221 146.671 102.469 146.537C102.716 146.404 102.988 146.305 103.287 146.239C103.588 146.171 103.89 146.117 104.194 146.077C104.592 146.026 104.915 145.988 105.162 145.962C105.412 145.934 105.594 145.887 105.707 145.822C105.824 145.756 105.882 145.643 105.882 145.481V145.447C105.882 145.026 105.767 144.699 105.537 144.466C105.309 144.233 104.964 144.117 104.501 144.117C104.021 144.117 103.645 144.222 103.372 144.432C103.099 144.643 102.907 144.867 102.797 145.106L101.842 144.765C102.013 144.367 102.24 144.057 102.524 143.836C102.811 143.611 103.123 143.455 103.461 143.367C103.802 143.276 104.138 143.231 104.467 143.231C104.677 143.231 104.919 143.256 105.192 143.307C105.467 143.356 105.733 143.456 105.988 143.61C106.247 143.763 106.461 143.995 106.632 144.305C106.802 144.614 106.888 145.029 106.888 145.549V149.861H105.882V148.975H105.831C105.763 149.117 105.649 149.269 105.49 149.431C105.331 149.593 105.119 149.731 104.855 149.844C104.591 149.958 104.268 150.015 103.888 150.015ZM104.041 149.111C104.439 149.111 104.774 149.033 105.047 148.877C105.322 148.721 105.53 148.519 105.669 148.272C105.811 148.025 105.882 147.765 105.882 147.492V146.572C105.839 146.623 105.746 146.67 105.601 146.712C105.459 146.752 105.294 146.787 105.106 146.819C104.922 146.847 104.741 146.873 104.565 146.895C104.392 146.915 104.251 146.932 104.143 146.947C103.882 146.981 103.638 147.036 103.41 147.113C103.186 147.187 103.004 147.299 102.865 147.449C102.729 147.597 102.66 147.799 102.66 148.055C102.66 148.404 102.79 148.668 103.048 148.847C103.309 149.023 103.64 149.111 104.041 149.111ZM108.723 149.861V143.316H109.695V144.305H109.763C109.882 143.981 110.098 143.718 110.411 143.516C110.723 143.314 111.075 143.214 111.468 143.214C111.541 143.214 111.634 143.215 111.744 143.218C111.855 143.221 111.939 143.225 111.996 143.231V144.253C111.962 144.245 111.884 144.232 111.762 144.215C111.642 144.195 111.516 144.185 111.382 144.185C111.064 144.185 110.78 144.252 110.53 144.385C110.283 144.516 110.087 144.698 109.942 144.931C109.8 145.161 109.729 145.424 109.729 145.719V149.861H108.723ZM115.648 149.998C115.034 149.998 114.506 149.853 114.063 149.563C113.619 149.273 113.279 148.874 113.04 148.366C112.801 147.857 112.682 147.276 112.682 146.623C112.682 145.958 112.804 145.371 113.048 144.863C113.296 144.351 113.639 143.952 114.08 143.665C114.523 143.376 115.04 143.231 115.631 143.231C116.091 143.231 116.506 143.316 116.875 143.486C117.244 143.657 117.547 143.895 117.783 144.202C118.019 144.509 118.165 144.867 118.222 145.276H117.216C117.139 144.978 116.969 144.714 116.705 144.483C116.443 144.251 116.091 144.134 115.648 144.134C115.256 144.134 114.912 144.236 114.617 144.441C114.324 144.643 114.095 144.928 113.931 145.297C113.769 145.664 113.688 146.094 113.688 146.589C113.688 147.094 113.767 147.535 113.926 147.91C114.088 148.285 114.316 148.576 114.608 148.783C114.904 148.991 115.25 149.094 115.648 149.094C115.909 149.094 116.146 149.049 116.36 148.958C116.573 148.867 116.753 148.736 116.901 148.566C117.048 148.395 117.154 148.191 117.216 147.952H118.222C118.165 148.339 118.024 148.687 117.8 148.996C117.578 149.303 117.284 149.547 116.918 149.729C116.554 149.908 116.131 149.998 115.648 149.998ZM120.698 145.924V149.861H119.692V141.134H120.698V144.339H120.783C120.936 144.001 121.166 143.732 121.473 143.533C121.783 143.331 122.195 143.231 122.709 143.231C123.155 143.231 123.546 143.32 123.881 143.499C124.216 143.675 124.476 143.947 124.661 144.313C124.848 144.677 124.942 145.14 124.942 145.702V149.861H123.936V145.77C123.936 145.251 123.801 144.849 123.531 144.564C123.264 144.278 122.894 144.134 122.419 144.134C122.09 144.134 121.794 144.204 121.533 144.343C121.274 144.482 121.07 144.685 120.919 144.952C120.771 145.219 120.698 145.543 120.698 145.924ZM133.072 143.316V144.168H129.543V143.316H133.072ZM130.6 149.861V142.412C130.6 142.037 130.688 141.725 130.864 141.475C131.04 141.225 131.269 141.037 131.55 140.912C131.831 140.787 132.128 140.725 132.441 140.725C132.688 140.725 132.89 140.745 133.046 140.785C133.202 140.824 133.319 140.861 133.395 140.895L133.106 141.765C133.055 141.748 132.983 141.726 132.893 141.701C132.805 141.675 132.688 141.662 132.543 141.662C132.211 141.662 131.971 141.746 131.823 141.914C131.678 142.081 131.606 142.327 131.606 142.651V149.861H130.6ZM136.871 149.998C136.28 149.998 135.761 149.857 135.315 149.576C134.872 149.295 134.525 148.901 134.275 148.395C134.028 147.89 133.905 147.299 133.905 146.623C133.905 145.941 134.028 145.346 134.275 144.837C134.525 144.329 134.872 143.934 135.315 143.653C135.761 143.371 136.28 143.231 136.871 143.231C137.461 143.231 137.979 143.371 138.422 143.653C138.868 143.934 139.214 144.329 139.461 144.837C139.711 145.346 139.836 145.941 139.836 146.623C139.836 147.299 139.711 147.89 139.461 148.395C139.214 148.901 138.868 149.295 138.422 149.576C137.979 149.857 137.461 149.998 136.871 149.998ZM136.871 149.094C137.319 149.094 137.689 148.979 137.979 148.749C138.268 148.519 138.483 148.216 138.622 147.841C138.761 147.466 138.831 147.06 138.831 146.623C138.831 146.185 138.761 145.778 138.622 145.4C138.483 145.022 138.268 144.716 137.979 144.483C137.689 144.251 137.319 144.134 136.871 144.134C136.422 144.134 136.052 144.251 135.763 144.483C135.473 144.716 135.258 145.022 135.119 145.4C134.98 145.778 134.91 146.185 134.91 146.623C134.91 147.06 134.98 147.466 135.119 147.841C135.258 148.216 135.473 148.519 135.763 148.749C136.052 148.979 136.422 149.094 136.871 149.094ZM141.372 149.861V143.316H142.343V144.305H142.411C142.531 143.981 142.747 143.718 143.059 143.516C143.372 143.314 143.724 143.214 144.116 143.214C144.19 143.214 144.282 143.215 144.393 143.218C144.504 143.221 144.588 143.225 144.644 143.231V144.253C144.61 144.245 144.532 144.232 144.41 144.215C144.291 144.195 144.164 144.185 144.031 144.185C143.713 144.185 143.428 144.252 143.178 144.385C142.931 144.516 142.735 144.698 142.59 144.931C142.448 145.161 142.377 145.424 142.377 145.719V149.861H141.372ZM151.138 150.015C150.723 150.015 150.346 149.937 150.008 149.78C149.67 149.621 149.402 149.393 149.203 149.094C149.004 148.793 148.905 148.43 148.905 148.003C148.905 147.628 148.979 147.324 149.126 147.091C149.274 146.856 149.471 146.671 149.719 146.537C149.966 146.404 150.238 146.305 150.537 146.239C150.838 146.171 151.14 146.117 151.444 146.077C151.842 146.026 152.165 145.988 152.412 145.962C152.662 145.934 152.844 145.887 152.957 145.822C153.074 145.756 153.132 145.643 153.132 145.481V145.447C153.132 145.026 153.017 144.699 152.787 144.466C152.559 144.233 152.214 144.117 151.751 144.117C151.271 144.117 150.895 144.222 150.622 144.432C150.349 144.643 150.157 144.867 150.047 145.106L149.092 144.765C149.263 144.367 149.49 144.057 149.774 143.836C150.061 143.611 150.373 143.455 150.711 143.367C151.052 143.276 151.388 143.231 151.717 143.231C151.927 143.231 152.169 143.256 152.442 143.307C152.717 143.356 152.983 143.456 153.238 143.61C153.497 143.763 153.711 143.995 153.882 144.305C154.052 144.614 154.138 145.029 154.138 145.549V149.861H153.132V148.975H153.081C153.013 149.117 152.899 149.269 152.74 149.431C152.581 149.593 152.369 149.731 152.105 149.844C151.841 149.958 151.518 150.015 151.138 150.015ZM151.291 149.111C151.689 149.111 152.024 149.033 152.297 148.877C152.572 148.721 152.78 148.519 152.919 148.272C153.061 148.025 153.132 147.765 153.132 147.492V146.572C153.089 146.623 152.996 146.67 152.851 146.712C152.709 146.752 152.544 146.787 152.356 146.819C152.172 146.847 151.991 146.873 151.815 146.895C151.642 146.915 151.501 146.932 151.393 146.947C151.132 146.981 150.888 147.036 150.66 147.113C150.436 147.187 150.254 147.299 150.115 147.449C149.979 147.597 149.91 147.799 149.91 148.055C149.91 148.404 150.04 148.668 150.298 148.847C150.559 149.023 150.89 149.111 151.291 149.111ZM164.7 143.316L162.28 149.861H161.257L158.837 143.316H159.928L161.735 148.532H161.803L163.61 143.316H164.7ZM167.755 150.015C167.34 150.015 166.964 149.937 166.626 149.78C166.287 149.621 166.019 149.393 165.82 149.094C165.621 148.793 165.522 148.43 165.522 148.003C165.522 147.628 165.596 147.324 165.743 147.091C165.891 146.856 166.089 146.671 166.336 146.537C166.583 146.404 166.856 146.305 167.154 146.239C167.455 146.171 167.758 146.117 168.062 146.077C168.459 146.026 168.782 145.988 169.029 145.962C169.279 145.934 169.461 145.887 169.574 145.822C169.691 145.756 169.749 145.643 169.749 145.481V145.447C169.749 145.026 169.634 144.699 169.404 144.466C169.177 144.233 168.831 144.117 168.368 144.117C167.888 144.117 167.512 144.222 167.239 144.432C166.966 144.643 166.775 144.867 166.664 145.106L165.709 144.765C165.88 144.367 166.107 144.057 166.391 143.836C166.678 143.611 166.991 143.455 167.329 143.367C167.67 143.276 168.005 143.231 168.334 143.231C168.545 143.231 168.786 143.256 169.059 143.307C169.334 143.356 169.6 143.456 169.856 143.61C170.114 143.763 170.329 143.995 170.499 144.305C170.67 144.614 170.755 145.029 170.755 145.549V149.861H169.749V148.975H169.698C169.63 149.117 169.516 149.269 169.357 149.431C169.198 149.593 168.986 149.731 168.722 149.844C168.458 149.958 168.135 150.015 167.755 150.015ZM167.908 149.111C168.306 149.111 168.641 149.033 168.914 148.877C169.189 148.721 169.397 148.519 169.536 148.272C169.678 148.025 169.749 147.765 169.749 147.492V146.572C169.706 146.623 169.613 146.67 169.468 146.712C169.326 146.752 169.161 146.787 168.974 146.819C168.789 146.847 168.608 146.873 168.432 146.895C168.259 146.915 168.118 146.932 168.01 146.947C167.749 146.981 167.505 147.036 167.278 147.113C167.053 147.187 166.871 147.299 166.732 147.449C166.596 147.597 166.528 147.799 166.528 148.055C166.528 148.404 166.657 148.668 166.915 148.847C167.177 149.023 167.508 149.111 167.908 149.111ZM173.596 141.134V149.861H172.59V141.134H173.596ZM175.438 149.861V143.316H176.444V149.861H175.438ZM175.949 142.225C175.753 142.225 175.584 142.158 175.442 142.025C175.303 141.891 175.233 141.731 175.233 141.543C175.233 141.356 175.303 141.195 175.442 141.062C175.584 140.928 175.753 140.861 175.949 140.861C176.145 140.861 176.313 140.928 176.452 141.062C176.594 141.195 176.665 141.356 176.665 141.543C176.665 141.731 176.594 141.891 176.452 142.025C176.313 142.158 176.145 142.225 175.949 142.225ZM180.757 149.998C180.212 149.998 179.73 149.86 179.313 149.584C178.895 149.306 178.568 148.914 178.333 148.408C178.097 147.9 177.979 147.299 177.979 146.606C177.979 145.918 178.097 145.322 178.333 144.816C178.568 144.31 178.896 143.92 179.317 143.644C179.737 143.368 180.223 143.231 180.774 143.231C181.2 143.231 181.537 143.302 181.784 143.444C182.034 143.583 182.225 143.742 182.355 143.921C182.489 144.097 182.593 144.242 182.666 144.356H182.752V141.134H183.757V149.861H182.786V148.856H182.666C182.593 148.975 182.487 149.126 182.351 149.307C182.215 149.486 182.02 149.647 181.767 149.789C181.514 149.928 181.178 149.998 180.757 149.998ZM180.894 149.094C181.297 149.094 181.638 148.989 181.916 148.779C182.195 148.566 182.406 148.272 182.551 147.897C182.696 147.519 182.769 147.083 182.769 146.589C182.769 146.1 182.698 145.672 182.556 145.306C182.414 144.937 182.203 144.65 181.925 144.445C181.646 144.238 181.303 144.134 180.894 144.134C180.468 144.134 180.112 144.243 179.828 144.462C179.547 144.678 179.335 144.972 179.193 145.344C179.054 145.714 178.985 146.128 178.985 146.589C178.985 147.055 179.056 147.478 179.198 147.858C179.343 148.236 179.556 148.537 179.837 148.762C180.121 148.983 180.473 149.094 180.894 149.094ZM190.119 141.134V149.861H189.114V141.134H190.119ZM194.621 149.998C194.03 149.998 193.511 149.857 193.065 149.576C192.622 149.295 192.275 148.901 192.025 148.395C191.778 147.89 191.655 147.299 191.655 146.623C191.655 145.941 191.778 145.346 192.025 144.837C192.275 144.329 192.622 143.934 193.065 143.653C193.511 143.371 194.03 143.231 194.621 143.231C195.211 143.231 195.729 143.371 196.172 143.653C196.618 143.934 196.964 144.329 197.211 144.837C197.461 145.346 197.586 145.941 197.586 146.623C197.586 147.299 197.461 147.89 197.211 148.395C196.964 148.901 196.618 149.295 196.172 149.576C195.729 149.857 195.211 149.998 194.621 149.998ZM194.621 149.094C195.069 149.094 195.439 148.979 195.729 148.749C196.018 148.519 196.233 148.216 196.372 147.841C196.511 147.466 196.581 147.06 196.581 146.623C196.581 146.185 196.511 145.778 196.372 145.4C196.233 145.022 196.018 144.716 195.729 144.483C195.439 144.251 195.069 144.134 194.621 144.134C194.172 144.134 193.802 144.251 193.513 144.483C193.223 144.716 193.008 145.022 192.869 145.4C192.73 145.778 192.66 146.185 192.66 146.623C192.66 147.06 192.73 147.466 192.869 147.841C193.008 148.216 193.223 148.519 193.513 148.749C193.802 148.979 194.172 149.094 194.621 149.094ZM201.781 149.998C201.167 149.998 200.639 149.853 200.195 149.563C199.752 149.273 199.411 148.874 199.173 148.366C198.934 147.857 198.815 147.276 198.815 146.623C198.815 145.958 198.937 145.371 199.181 144.863C199.428 144.351 199.772 143.952 200.213 143.665C200.656 143.376 201.173 143.231 201.764 143.231C202.224 143.231 202.639 143.316 203.008 143.486C203.377 143.657 203.68 143.895 203.916 144.202C204.151 144.509 204.298 144.867 204.355 145.276H203.349C203.272 144.978 203.102 144.714 202.838 144.483C202.576 144.251 202.224 144.134 201.781 144.134C201.389 144.134 201.045 144.236 200.749 144.441C200.457 144.643 200.228 144.928 200.063 145.297C199.901 145.664 199.82 146.094 199.82 146.589C199.82 147.094 199.9 147.535 200.059 147.91C200.221 148.285 200.448 148.576 200.741 148.783C201.036 148.991 201.383 149.094 201.781 149.094C202.042 149.094 202.279 149.049 202.492 148.958C202.705 148.867 202.886 148.736 203.034 148.566C203.181 148.395 203.286 148.191 203.349 147.952H204.355C204.298 148.339 204.157 148.687 203.933 148.996C203.711 149.303 203.417 149.547 203.051 149.729C202.687 149.908 202.264 149.998 201.781 149.998ZM207.751 150.015C207.336 150.015 206.96 149.937 206.622 149.78C206.284 149.621 206.015 149.393 205.816 149.094C205.617 148.793 205.518 148.43 205.518 148.003C205.518 147.628 205.592 147.324 205.74 147.091C205.887 146.856 206.085 146.671 206.332 146.537C206.579 146.404 206.852 146.305 207.15 146.239C207.451 146.171 207.754 146.117 208.058 146.077C208.455 146.026 208.778 145.988 209.025 145.962C209.275 145.934 209.457 145.887 209.57 145.822C209.687 145.756 209.745 145.643 209.745 145.481V145.447C209.745 145.026 209.63 144.699 209.4 144.466C209.173 144.233 208.828 144.117 208.365 144.117C207.884 144.117 207.508 144.222 207.235 144.432C206.963 144.643 206.771 144.867 206.66 145.106L205.705 144.765C205.876 144.367 206.103 144.057 206.387 143.836C206.674 143.611 206.987 143.455 207.325 143.367C207.666 143.276 208.001 143.231 208.33 143.231C208.541 143.231 208.782 143.256 209.055 143.307C209.33 143.356 209.596 143.456 209.852 143.61C210.11 143.763 210.325 143.995 210.495 144.305C210.666 144.614 210.751 145.029 210.751 145.549V149.861H209.745V148.975H209.694C209.626 149.117 209.512 149.269 209.353 149.431C209.194 149.593 208.982 149.731 208.718 149.844C208.454 149.958 208.132 150.015 207.751 150.015ZM207.904 149.111C208.302 149.111 208.637 149.033 208.91 148.877C209.186 148.721 209.393 148.519 209.532 148.272C209.674 148.025 209.745 147.765 209.745 147.492V146.572C209.703 146.623 209.609 146.67 209.464 146.712C209.322 146.752 209.157 146.787 208.97 146.819C208.785 146.847 208.605 146.873 208.428 146.895C208.255 146.915 208.115 146.932 208.007 146.947C207.745 146.981 207.501 147.036 207.274 147.113C207.049 147.187 206.867 147.299 206.728 147.449C206.592 147.597 206.524 147.799 206.524 148.055C206.524 148.404 206.653 148.668 206.911 148.847C207.173 149.023 207.504 149.111 207.904 149.111ZM215.433 143.316V144.168H212.041V143.316H215.433ZM213.03 141.748H214.035V147.986C214.035 148.27 214.077 148.483 214.159 148.626C214.244 148.765 214.352 148.858 214.483 148.907C214.616 148.952 214.757 148.975 214.905 148.975C215.015 148.975 215.106 148.969 215.177 148.958C215.248 148.944 215.305 148.932 215.348 148.924L215.552 149.827C215.484 149.853 215.389 149.878 215.267 149.904C215.145 149.932 214.99 149.947 214.802 149.947C214.518 149.947 214.24 149.885 213.967 149.763C213.697 149.641 213.473 149.455 213.294 149.205C213.118 148.955 213.03 148.64 213.03 148.259V141.748ZM216.946 149.861V143.316H217.952V149.861H216.946ZM217.457 142.225C217.261 142.225 217.092 142.158 216.95 142.025C216.811 141.891 216.741 141.731 216.741 141.543C216.741 141.356 216.811 141.195 216.95 141.062C217.092 140.928 217.261 140.861 217.457 140.861C217.653 140.861 217.821 140.928 217.96 141.062C218.102 141.195 218.173 141.356 218.173 141.543C218.173 141.731 218.102 141.891 217.96 142.025C217.821 142.158 217.653 142.225 217.457 142.225ZM222.453 149.998C221.862 149.998 221.343 149.857 220.897 149.576C220.454 149.295 220.107 148.901 219.857 148.395C219.61 147.89 219.487 147.299 219.487 146.623C219.487 145.941 219.61 145.346 219.857 144.837C220.107 144.329 220.454 143.934 220.897 143.653C221.343 143.371 221.862 143.231 222.453 143.231C223.044 143.231 223.561 143.371 224.004 143.653C224.45 143.934 224.796 144.329 225.044 144.837C225.294 145.346 225.419 145.941 225.419 146.623C225.419 147.299 225.294 147.89 225.044 148.395C224.796 148.901 224.45 149.295 224.004 149.576C223.561 149.857 223.044 149.998 222.453 149.998ZM222.453 149.094C222.901 149.094 223.271 148.979 223.561 148.749C223.85 148.519 224.065 148.216 224.204 147.841C224.343 147.466 224.413 147.06 224.413 146.623C224.413 146.185 224.343 145.778 224.204 145.4C224.065 145.022 223.85 144.716 223.561 144.483C223.271 144.251 222.901 144.134 222.453 144.134C222.004 144.134 221.634 144.251 221.345 144.483C221.055 144.716 220.84 145.022 220.701 145.4C220.562 145.778 220.492 146.185 220.492 146.623C220.492 147.06 220.562 147.466 220.701 147.841C220.84 148.216 221.055 148.519 221.345 148.749C221.634 148.979 222.004 149.094 222.453 149.094ZM227.959 145.924V149.861H226.954V143.316H227.925V144.339H228.01C228.164 144.006 228.397 143.739 228.709 143.537C229.022 143.333 229.425 143.231 229.92 143.231C230.363 143.231 230.751 143.322 231.083 143.503C231.415 143.682 231.674 143.955 231.858 144.322C232.043 144.685 232.135 145.145 232.135 145.702V149.861H231.13V145.77C231.13 145.256 230.996 144.856 230.729 144.569C230.462 144.279 230.096 144.134 229.63 144.134C229.309 144.134 229.022 144.204 228.769 144.343C228.519 144.482 228.322 144.685 228.177 144.952C228.032 145.219 227.959 145.543 227.959 145.924Z" fill="#888888"/>
<defs>
<clipPath id="clip0_140_4217">
<rect width="101.431" height="80.8613" fill="white" transform="translate(89.2847)"/>
</clipPath>
</defs>
</svg>
