<svg width="45" height="51" viewBox="0 0 45 51" fill="none" xmlns="http://www.w3.org/2000/svg">
<path d="M7.60327 31.3796L18.5917 25.4188L7.60327 19.4468V31.3796Z" fill="black"/>
<path d="M37.4295 43.3993C41.9574 38.7126 44.4533 32.1977 44.4533 25.3172C44.4533 18.4367 41.9574 12.0215 37.4295 7.34586C32.8795 2.63698 26.673 0 19.9474 0H14.6133C19.3289 0 23.5918 3.34608 26.9712 6.84727C31.6095 11.6448 34.1606 18.1486 34.1606 25.1953C34.1606 32.242 31.6095 39.045 26.9712 43.8425C23.5918 47.3326 19.3289 49.327 14.6133 51H19.9474C26.673 50.9889 32.8795 48.1082 37.4295 43.3993Z" fill="#C82228"/>
<path d="M26.9687 6.84727C23.6003 3.34608 19.3264 0 14.6108 0H0V20.0654H7.49866V12.5423H20.9167C24.4507 12.5423 27.7307 13.5837 30.1272 16.0656C32.5126 18.5364 33.8268 21.7274 33.8268 25.3504C33.8268 28.9735 32.5126 32.242 30.1272 34.7017C27.7307 37.1836 24.4618 38.4577 20.9167 38.4577H7.49866V30.9346H0V51H14.6108C19.3264 49.327 23.5893 47.3326 26.9687 43.8314C31.607 39.0339 34.1581 32.2642 34.1581 25.2175C34.1692 18.1708 31.607 11.6337 26.9687 6.84727Z" fill="black"/>
</svg>
