<svg width="249" height="140" viewBox="0 0 249 140" fill="none" xmlns="http://www.w3.org/2000/svg">
<g clip-path="url(#clip0_2804_5043)">
<mask id="mask0_2804_5043" style="mask-type:luminance" maskUnits="userSpaceOnUse" x="0" y="0" width="249" height="140">
<path d="M248.889 0H0V140H248.889V0Z" fill="white"/>
</mask>
<g mask="url(#mask0_2804_5043)">
<g opacity="0.155232">
<path d="M136.242 52.1401C137.357 52.1401 138.263 53.0456 138.263 54.1607C138.263 55.2758 137.357 56.1813 136.242 56.1813C135.127 56.1813 134.222 55.2758 134.222 54.1607C134.222 53.0456 135.127 52.1401 136.242 52.1401Z" fill="#2BAD24"/>
<path d="M112.255 55.269C113.155 55.269 113.885 55.9992 113.885 56.8985C113.885 57.7978 113.155 58.528 112.255 58.528C111.356 58.528 110.626 57.7978 110.626 56.8985C110.626 55.9992 111.356 55.269 112.255 55.269Z" fill="#2BAD24"/>
<path d="M111.343 78.8633C112.387 78.8633 113.234 79.7103 113.234 80.7535C113.234 81.7967 112.387 82.6437 111.343 82.6437C110.3 82.6437 109.453 81.7967 109.453 80.7535C109.453 79.7103 110.3 78.8633 111.343 78.8633Z" fill="#2BAD24"/>
<path d="M138.587 77.0388C139.414 77.0388 140.086 77.7106 140.086 78.5379C140.086 79.3653 139.414 80.0371 138.587 80.0371C137.76 80.0371 137.088 79.3653 137.088 78.5379C137.088 77.7106 137.76 77.0388 138.587 77.0388Z" fill="#2BAD24"/>
<path d="M109.713 71.6938C110.144 71.6938 110.495 72.0443 110.495 72.476C110.495 72.9077 110.144 73.2582 109.713 73.2582C109.281 73.2582 108.931 72.9077 108.931 72.476C108.931 72.0443 109.281 71.6938 109.713 71.6938Z" fill="#2BAD24"/>
<path d="M138.785 65.437C139.288 65.437 139.697 65.8459 139.697 66.3495C139.697 66.8531 139.288 67.262 138.785 67.262C138.281 67.262 137.872 66.8531 137.872 66.3495C137.872 65.8459 138.281 65.437 138.785 65.437Z" fill="#2BAD24"/>
<path d="M123.335 53.0527C123.802 53.0527 124.182 53.4324 124.182 53.9001C124.182 54.3677 123.802 54.7474 123.335 54.7474C122.867 54.7474 122.487 54.3677 122.487 53.9001C122.487 53.4324 122.867 53.0527 123.335 53.0527Z" fill="#2BAD24"/>
<path d="M124.378 84.3396C124.918 84.3396 125.356 84.7777 125.356 85.3173C125.356 85.8569 124.918 86.295 124.378 86.295C123.838 86.295 123.4 85.8569 123.4 85.3173C123.4 84.7777 123.838 84.3396 124.378 84.3396Z" fill="#2BAD24"/>
</g>
<g opacity="0.155232">
<path d="M141.194 65.9233L141.595 66.7347L142.49 66.8648L141.842 67.4963L141.995 68.3881L141.194 67.967L140.393 68.3881L140.546 67.4963L139.898 66.8648L140.794 66.7347L141.194 65.9233Z" fill="#2BAD24"/>
<path d="M109.099 66.1443L109.573 67.103L110.631 67.2567L109.865 68.0029L110.046 69.0566L109.099 68.5591L108.153 69.0566L108.334 68.0029L107.568 67.2567L108.626 67.103L109.099 66.1443Z" fill="#2BAD24"/>
<path d="M123.791 51.7949L124.094 52.4105L124.774 52.5092L124.282 52.9882L124.398 53.6648L123.791 53.3453L123.183 53.6648L123.299 52.9882L122.808 52.5092L123.487 52.4105L123.791 51.7949Z" fill="#2BAD24"/>
<path d="M124.914 83.5498L125.387 84.5085L126.445 84.6622L125.679 85.4084L125.86 86.4621L124.914 85.9646L123.968 86.4621L124.148 85.4084L123.383 84.6622L124.441 84.5085L124.914 83.5498Z" fill="#2BAD24"/>
</g>
<g opacity="0.755128">
<path d="M124.446 29.415C146.614 29.415 164.612 47.4134 164.612 69.5811C164.612 91.7487 146.614 109.747 124.446 109.747C102.279 109.747 84.2803 91.7487 84.2803 69.5811C84.2803 47.4134 102.279 29.415 124.446 29.415Z" fill="#2BAD24"/>
</g>
<g opacity="0.764567">
<path d="M124.447 43.2339C138.897 43.2339 150.629 54.9662 150.629 69.4163C150.629 83.8663 138.897 95.5987 124.447 95.5987C109.997 95.5987 98.2646 83.8663 98.2646 69.4163C98.2646 54.9662 109.997 43.2339 124.447 43.2339Z" fill="#2BAD24"/>
</g>
</g>
<g clip-path="url(#clip1_2804_5043)">
<mask id="mask1_2804_5043" style="mask-type:luminance" maskUnits="userSpaceOnUse" x="0" y="0" width="249" height="140">
<path d="M248.889 0H0V140H248.889V0Z" fill="white"/>
</mask>
<g mask="url(#mask1_2804_5043)">
<g opacity="0.566106">
<path d="M162.2 12.8425C165.769 12.8425 168.667 15.7402 168.667 19.3092C168.667 22.8781 165.769 25.7758 162.2 25.7758C158.631 25.7758 155.733 22.8781 155.733 19.3092C155.733 15.7402 158.631 12.8425 162.2 12.8425Z" fill="#2BAD24"/>
<path d="M85.4338 22.856C88.312 22.856 90.6488 25.1928 90.6488 28.071C90.6488 30.9492 88.312 33.286 85.4338 33.286C82.5556 33.286 80.2188 30.9492 80.2188 28.071C80.2188 25.1928 82.5556 22.856 85.4338 22.856Z" fill="#2BAD24"/>
<path d="M82.5143 98.3704C85.853 98.3704 88.5637 101.081 88.5637 104.42C88.5637 107.759 85.853 110.469 82.5143 110.469C79.1756 110.469 76.4648 107.759 76.4648 104.42C76.4648 101.081 79.1756 98.3704 82.5143 98.3704Z" fill="#2BAD24"/>
<path d="M169.71 92.5291C172.358 92.5291 174.508 94.679 174.508 97.3269C174.508 99.9748 172.358 102.125 169.71 102.125C167.062 102.125 164.912 99.9748 164.912 97.3269C164.912 94.679 167.062 92.5291 169.71 92.5291Z" fill="#2BAD24"/>
<path d="M77.2991 75.4233C78.6806 75.4233 79.8023 76.545 79.8023 77.9266C79.8023 79.3081 78.6806 80.4298 77.2991 80.4298C75.9176 80.4298 74.7959 79.3081 74.7959 77.9266C74.7959 76.545 75.9176 75.4233 77.2991 75.4233Z" fill="#2BAD24"/>
<path d="M170.336 55.3975C171.948 55.3975 173.257 56.7061 173.257 58.3179C173.257 59.9297 171.948 61.2383 170.336 61.2383C168.725 61.2383 167.416 59.9297 167.416 58.3179C167.416 56.7061 168.725 55.3975 170.336 55.3975Z" fill="#2BAD24"/>
<path d="M120.896 15.7627C122.393 15.7627 123.608 16.9779 123.608 18.4745C123.608 19.9712 122.393 21.1863 120.896 21.1863C119.4 21.1863 118.185 19.9712 118.185 18.4745C118.185 16.9779 119.4 15.7627 120.896 15.7627Z" fill="#2BAD24"/>
<path d="M124.234 115.892C125.96 115.892 127.363 117.294 127.363 119.021C127.363 120.748 125.96 122.15 124.234 122.15C122.507 122.15 121.104 120.748 121.104 119.021C121.104 117.294 122.507 115.892 124.234 115.892Z" fill="#2BAD24"/>
</g>
<g opacity="0.566106">
<path d="M181.303 56.1626L182.662 58.9168L185.702 59.3584L183.502 61.5023L184.022 64.5294L181.303 63.1002L178.584 64.5294L179.104 61.5023L176.904 59.3584L179.944 58.9168L181.303 56.1626Z" fill="#2BAD24"/>
<path d="M72.3469 56.9111L73.953 60.1655L77.5444 60.6873L74.9456 63.2205L75.5591 66.7973L72.3469 65.1086L69.1347 66.7973L69.7482 63.2205L67.1494 60.6873L70.7408 60.1655L72.3469 56.9111Z" fill="#2BAD24"/>
<path d="M122.22 8.20093L123.251 10.2907L125.557 10.6255L123.888 12.2518L124.282 14.5485L122.22 13.4639L120.157 14.5485L120.552 12.2518L118.883 10.6255L121.189 10.2907L122.22 8.20093Z" fill="#2BAD24"/>
<path d="M126.031 115.995L127.638 119.25L131.229 119.772L128.63 122.305L129.244 125.882L126.031 124.193L122.819 125.882L123.433 122.305L120.834 119.772L124.425 119.25L126.031 115.995Z" fill="#2BAD24"/>
</g>
<g opacity="0.999075">
<path d="M124.443 43.1462C138.942 43.1462 150.713 54.9179 150.713 69.4164C150.713 83.9149 138.942 95.6866 124.443 95.6866C109.945 95.6866 98.1729 83.9149 98.1729 69.4164C98.1729 54.9179 109.945 43.1462 124.443 43.1462Z" fill="#2BAD24"/>
</g>
<path d="M113.372 68.2922L120.933 75.8531C120.933 75.8531 133.229 63.5566 134.488 62.2981" stroke="white" stroke-width="5.85362" stroke-linecap="round"/>
</g>
</g>
</g>
<defs>
<clipPath id="clip0_2804_5043">
<rect width="248.889" height="140" fill="white"/>
</clipPath>
<clipPath id="clip1_2804_5043">
<rect width="248.889" height="140" fill="white"/>
</clipPath>
</defs>
</svg>
