<svg width="39" height="32" viewBox="0 0 39 32" fill="none" xmlns="http://www.w3.org/2000/svg">
<path d="M37.903 23.8477C36.8853 22.5439 34.9772 22.0796 33.5843 21.3545C33.0564 21.0747 32.4967 20.8139 31.9688 20.5277C32.4713 20.4259 32.4649 19.6118 31.9116 19.6563C31.5363 19.6563 31.1611 19.6563 30.7858 19.7009C30.2856 19.2314 29.828 18.7184 29.4184 18.168C29.9717 18.1108 29.9717 17.2395 29.4184 17.284C29.1831 17.284 28.9541 17.284 28.7188 17.3158C28.2672 16.8133 27.8347 16.3109 27.4086 15.8084H27.4658C28.0319 15.7639 28.0382 14.8798 27.4658 14.9243C27.2114 14.9243 26.9633 14.9243 26.7089 14.9561C26.3146 14.46 25.933 13.9576 25.5641 13.4424H25.6022C26.1683 13.3979 26.1747 12.5138 25.6022 12.5583H24.9662C24.7627 12.2594 24.5592 11.9668 24.3684 11.6552C24.2497 11.4596 24.1414 11.2579 24.044 11.0509H24.1076C24.6737 11.0064 24.6737 10.116 24.1076 10.1605H23.6178C23.1345 9.16831 22.562 8.12523 21.7479 7.77542C21.6348 7.7243 21.5148 7.69001 21.3918 7.67365C21.2518 7.22843 21.0865 6.77686 20.9084 6.35709C20.8532 6.14696 20.7357 5.95846 20.5713 5.81646C20.018 5.42213 18.8731 5.53662 18.2625 5.67018C16.4817 6.05815 16.1827 7.64822 16.0937 9.23192C15.6052 9.381 15.0874 9.40721 14.5863 9.30824C13.1127 8.89856 11.8214 8.0018 10.9228 6.76414C10.2868 5.76558 10.6811 4.16916 9.65077 3.46318C9.54149 3.39208 9.42403 3.33442 9.30095 3.29145C9.52753 3.01079 9.67467 2.67449 9.72703 2.3176C9.77938 1.96072 9.73503 1.59632 9.59861 1.26241C9.46219 0.928502 9.23869 0.637302 8.95141 0.419179C8.66413 0.201055 8.32359 0.0639913 7.96531 0.0222849C7.80711 -0.00272397 7.64535 0.00710763 7.49135 0.0510892C7.33734 0.0950707 7.19479 0.172142 7.07365 0.276923C6.95252 0.381705 6.85572 0.511668 6.79002 0.657736C6.72432 0.803804 6.69129 0.962461 6.69326 1.12261C6.69326 1.56147 7.03035 1.8604 7.23387 2.21021C7.39166 2.49394 7.45103 2.82195 7.4027 3.14299C7.35437 3.46403 7.20107 3.76002 6.96674 3.98472C4.81062 5.74651 1.18529 7.80087 1.70047 11.1018C-0.322088 11.9541 -0.2076 15.2423 0.969045 16.7306C3.16333 19.4528 6.69326 20.8521 9.78434 22.2577C11.3876 22.9693 12.9372 23.7961 14.4209 24.7318C16.329 25.9657 17.8237 27.6321 19.5727 29.0441C22.3076 31.2383 24.5464 31.4546 27.9301 31.4928C29.889 31.4928 31.8544 31.4928 33.807 31.3719C35.1744 31.2765 36.3511 31.2383 37.4387 30.297C38.3449 29.4968 38.9012 28.3731 38.988 27.1672C39.0749 25.9613 38.6853 24.7695 37.903 23.8477ZM38.0683 26.977C35.6769 28.4526 31.9498 28.2045 29.2467 27.931C27.9966 27.8001 26.7716 27.4917 25.6086 27.0151C26.181 25.2852 28.6297 24.8845 30.1435 25.0625C30.8664 25.2147 31.607 25.2661 32.3441 25.2152C32.9541 25.0641 33.5257 24.7868 34.022 24.4012C34.5182 24.0155 34.9282 23.5302 35.2253 22.9764C35.6584 23.174 36.0645 23.4262 36.4337 23.7269C36.9071 24.134 37.2953 24.6308 37.5758 25.1886C37.8564 25.7464 38.0237 26.3542 38.0683 26.977ZM22.562 10.2432C21.926 10.2432 21.3218 10.2432 20.7049 10.205C20.0879 10.1669 20.1388 11.0509 20.7049 11.0891C21.5036 11.1304 22.3039 11.1304 23.1027 11.0891C23.4016 11.6106 23.6751 12.1385 23.9359 12.5965C23.3507 12.5965 22.7719 12.5965 22.1868 12.552C21.6017 12.5074 21.6207 13.4042 22.1868 13.436C22.9564 13.4869 23.726 13.4869 24.4892 13.436C24.8326 13.9449 25.1825 14.4473 25.545 14.9371C25.0489 14.9371 24.5528 14.937 24.0504 14.8925C23.5479 14.848 23.4843 15.7448 24.0504 15.783C24.7818 15.8275 25.5068 15.8275 26.2319 15.783C26.6326 16.2918 27.0397 16.7879 27.4594 17.2776C26.9761 17.2776 26.4863 17.2776 26.0029 17.2395C25.5196 17.2013 25.4369 18.0854 26.0029 18.1235C26.7344 18.1744 27.4722 18.1744 28.2036 18.1553C28.6361 18.6514 29.0813 19.1475 29.5265 19.6373C29.1894 19.6373 28.8523 19.6373 28.5152 19.6373C27.9428 19.5991 27.9428 20.4895 28.5152 20.5213C29.0877 20.5531 29.8254 20.5722 30.4742 20.5595C30.7266 20.7486 30.99 20.9228 31.2629 21.081C28.3753 22.7792 25.704 19.0903 24.0631 17.1377C22.0253 14.6169 20.2421 11.9005 18.7395 9.02839C19.24 8.76603 19.7964 8.62856 20.3614 8.62769C20.824 8.71963 21.2609 8.91195 21.6411 9.19108C22.0214 9.47021 22.3357 9.82935 22.562 10.2432ZM18.377 6.58606C18.8674 6.43011 19.394 6.43011 19.8844 6.58606C20.1197 6.71326 20.3296 7.27296 20.4695 7.6991C19.7007 7.86863 18.9522 8.12024 18.2371 8.4496C17.8491 8.60225 17.4421 8.7867 17.0286 8.95842C17.0668 7.94078 17.2385 6.92315 18.377 6.58606ZM9.70165 6.36981C10.0354 7.21471 10.5755 7.96254 11.2726 8.54501C12.8182 9.81706 14.828 10.7075 16.7679 10.0015C17.0859 9.88066 17.4929 9.67077 17.9382 9.44816C18.1417 9.82342 18.3643 10.186 18.5742 10.5548C16.4308 11.4135 14.4909 11.687 12.2139 10.8792C9.44088 9.89338 8.00347 7.54646 7.43741 4.74159C7.55825 4.65255 7.66637 4.5635 7.7745 4.47445C9.03382 3.42501 9.39 5.49846 9.70165 6.36981ZM8.25152 1.06536C8.43221 1.15931 8.58508 1.29904 8.69487 1.47056C8.80466 1.64209 8.86753 1.83942 8.87718 2.04285C8.88684 2.24627 8.84295 2.44868 8.7499 2.62983C8.65685 2.81099 8.51789 2.96456 8.34692 3.0752C8.32095 3.0937 8.29926 3.11756 8.28332 3.14516C8.32842 2.77433 8.27123 2.39824 8.11795 2.05757C8.00346 1.81588 7.79358 1.63143 7.68545 1.42155C7.46921 0.919086 7.89534 0.880917 8.25152 1.06536ZM6.68689 5.32036C8.06706 11.1845 13.5051 13.5887 19.0194 11.3308C20.7738 14.311 22.7872 17.131 25.0362 19.7581C26.7916 21.8061 29.7428 23.2499 32.1278 21.5835L32.4904 21.7743C33.0437 22.0542 33.7306 22.3149 34.3985 22.6011C34.0873 23.1608 33.6226 23.6198 33.0591 23.9241C32.4957 24.2283 31.857 24.3651 31.2183 24.3184C30.36 24.1817 29.4925 24.1115 28.6234 24.1085C27.1732 24.2612 25.3224 25.2088 24.7754 26.6526C23.0533 25.8073 21.4425 24.7519 19.9798 23.5107L19.8144 23.3644C19.8834 23.3159 19.9382 23.2501 19.9734 23.1736C20.8321 21.0747 19.8717 18.5624 18.1926 17.1568C16.2018 15.4967 13.8422 15.3886 11.4189 15.9292C11.351 15.9432 11.2877 15.9738 11.2345 16.0183C8.4296 14.2565 5.51025 12.6728 2.54638 11.1527C2.03756 8.57681 4.69614 6.7705 6.68689 5.32036ZM19.1784 22.8237C16.9078 20.7885 14.987 18.4543 12.3984 16.7561L12.2903 16.6861C13.1385 16.486 14.0189 16.4623 14.8766 16.6166C15.7344 16.7708 16.5513 17.0998 17.2767 17.5829C18.8731 18.6959 19.878 20.9157 19.1784 22.8237ZM36.9871 29.4702C35.5878 30.5832 33.5907 30.5196 31.8989 30.5769C29.253 30.6596 25.8376 31.1239 23.2998 30.2461C20.3678 29.2285 18.4152 26.5254 15.9983 24.7255C13.5814 22.9255 10.6239 21.787 7.86354 20.4705C6.3155 19.7826 4.84625 18.9296 3.48134 17.9264C2.60971 17.3462 1.8582 16.6033 1.26798 15.7384C0.740077 14.7462 0.943595 12.4375 2.20292 11.9732C5.84734 13.8813 9.62533 15.7893 12.9517 18.1808C16.2781 20.5722 18.8222 24.0131 22.3585 26.3282C24.828 27.9602 27.706 28.8659 30.665 28.9423C32.961 29.0441 35.8041 29.1395 37.9793 28.0964C37.7854 28.6425 37.4278 29.1156 36.9553 29.4511L36.9871 29.4702Z" fill="white" fill-opacity="0.15"/>
<path d="M5.58689 17.0612C4.46748 16.6033 2.74385 15.4012 2.68025 14.0529C2.68025 13.4804 1.77074 13.4804 1.79618 14.0529C1.87886 15.8592 3.83146 17.2966 5.35156 17.9135C5.87946 18.1298 6.11479 17.2711 5.58689 17.0612Z" fill="white" fill-opacity="0.15"/>
<path d="M6.53346 17.8628C6.42535 17.8758 6.32576 17.9279 6.25351 18.0094C6.18126 18.0908 6.14136 18.196 6.14136 18.3048C6.14136 18.4137 6.18126 18.5188 6.25351 18.6003C6.32576 18.6817 6.42535 18.7339 6.53346 18.7469C6.64156 18.7339 6.74115 18.6817 6.81341 18.6003C6.88566 18.5188 6.92555 18.4137 6.92555 18.3048C6.92555 18.196 6.88566 18.0908 6.81341 18.0094C6.74115 17.9279 6.64156 17.8758 6.53346 17.8628Z" fill="white" fill-opacity="0.15"/>
</svg>
