<svg width="52" height="50" viewBox="0 0 52 50" fill="none" xmlns="http://www.w3.org/2000/svg">
<path d="M42.3259 17.2541C38.3393 15.6965 31.9439 18.7097 32.5007 23.2971C31.2069 22.7401 29.7742 22.59 28.3931 22.8669C26.8458 23.1383 25.4109 23.8545 24.2639 24.9279C23.1169 26.0013 22.3073 27.3856 21.934 28.9116C21.8538 28.7726 21.7769 28.6395 21.6934 28.4948C20.2863 26.0577 18.5792 23.2613 18.1205 20.4079C19.217 20.6007 20.346 20.3781 21.2873 19.7836C23.2111 18.5571 24.9815 17.3189 24.5647 14.7654C24.1727 12.3752 22.0025 10.5949 19.7941 9.92487C18.2325 9.45261 17.8569 9.63087 16.5086 10.5174C15.1599 11.3652 13.8626 12.2921 12.6234 13.2931C10.5881 15.0084 10.7129 19.5828 10.7008 22.0751C10.6527 29.5049 11.1734 37.3317 14.4461 44.1099C14.487 44.1805 14.5458 44.239 14.6166 44.2795C14.6874 44.32 14.7677 44.3409 14.8493 44.3402C26.72 45.0352 40.145 38.9438 45.8955 28.1292C48.0071 24.1932 46.7851 19.0018 42.3259 17.2541ZM44.9239 27.9569C41.796 33.4213 36.5502 37.6772 30.9017 40.3132C28.015 41.6586 24.9545 42.5942 21.809 43.093C20.0942 43.3634 18.3597 43.4896 16.6238 43.4701C14.4241 43.4434 14.0517 40.9802 13.5079 39.1561C12.5276 35.5935 11.9659 31.9287 11.8343 28.2361C11.6309 24.6486 11.4231 20.9866 12.0174 17.4172C12.1022 16.3907 12.4059 15.3942 12.9081 14.4948C13.6362 13.403 14.9396 12.6659 16.0182 11.9274C17.0003 11.2755 17.952 10.5176 19.2272 10.7076C20.3772 10.957 21.4263 11.5448 22.2394 12.3955C23.2146 13.3761 24.0879 15.1025 23.4773 16.5047C23.0647 17.5148 22.0285 18.113 21.1573 18.7163C20.9087 18.9217 20.6432 19.1059 20.3639 19.2671C19.5843 19.6013 17.8405 19.5353 17.9641 18.2522C18.018 17.7039 19.0829 16.8344 19.5286 16.5771C19.6202 16.5084 19.6834 16.4086 19.7064 16.2965C19.7293 16.1844 19.7104 16.0678 19.6532 15.9687C19.596 15.8696 19.5044 15.7949 19.3959 15.7587C19.2873 15.7226 19.1692 15.7274 19.064 15.7724C18.0748 16.305 16.3424 18.077 16.9145 19.3753C16.9648 19.4823 17.0241 19.585 17.0916 19.6821C17.2901 21.9911 18.3385 24.1412 19.3947 26.1711C19.9676 27.2837 20.6547 28.3535 21.2127 29.467C22.2219 31.5626 21.7584 33.9682 21.177 36.1563C21.1445 36.2773 21.1615 36.4064 21.2242 36.5149C21.2869 36.6235 21.3901 36.7027 21.5112 36.7351C21.6323 36.7676 21.7613 36.7506 21.8698 36.6879C21.9784 36.6252 22.0576 36.522 22.0901 36.4009C22.6519 34.2859 22.984 32.3344 22.4946 30.4172C22.5158 30.3763 22.5323 30.3331 22.5437 30.2885C23.123 26.8667 25.2396 24.263 28.7924 23.7324C30.1073 23.5366 31.7927 23.6751 32.8539 24.5906C33.1702 24.8711 33.7983 24.6088 33.6295 24.1428C31.8435 19.0841 39.5327 16.3197 43.0953 18.7472C46.337 20.9663 46.7511 24.7717 44.9239 27.9569Z" fill="white" fill-opacity="0.15"/>
<path d="M34.0716 29.4529C33.8421 30.3137 33.4258 31.1135 32.8524 31.7954C32.279 32.4773 31.5625 33.0245 30.7538 33.3984C29.0471 34.2525 27.3968 34.8966 25.4627 34.7551C24.8581 34.7105 24.8631 35.6416 25.4586 35.6837C27.7327 35.8527 29.7867 34.9987 31.756 33.9312C33.5227 32.9806 34.348 31.5625 34.9698 29.6984C35.1605 29.1329 34.2623 28.8874 34.0716 29.4529Z" fill="white" fill-opacity="0.15"/>
<path d="M24.7209 30.7301C24.7543 29.8164 25.0459 28.9309 25.5618 28.1761C25.6229 28.0692 25.639 27.9424 25.6066 27.8236C25.5742 27.7047 25.496 27.6037 25.3891 27.5426C25.2821 27.4815 25.1553 27.4654 25.0365 27.4978C24.9177 27.5302 24.8167 27.6085 24.7556 27.7154C24.1571 28.6065 23.825 29.6496 23.7981 30.7226C23.8455 31.3127 24.7741 31.3169 24.7209 30.7301Z" fill="white" fill-opacity="0.15"/>
<path d="M26.2267 27.228C26.3183 27.1594 26.3815 27.0596 26.4045 26.9475C26.4274 26.8354 26.4085 26.7187 26.3513 26.6196C26.2941 26.5205 26.2025 26.4458 26.094 26.4097C25.9854 26.3735 25.8674 26.3784 25.7621 26.4234C25.6706 26.492 25.6073 26.5918 25.5844 26.7039C25.5614 26.816 25.5803 26.9326 25.6376 27.0317C25.6948 27.1308 25.7863 27.2055 25.8949 27.2417C26.0034 27.2778 26.1215 27.273 26.2267 27.228Z" fill="white" fill-opacity="0.15"/>
</svg>
