<svg width="22" height="22" viewBox="0 0 22 22" fill="none" xmlns="http://www.w3.org/2000/svg">
<path d="M15.8086 2.0625V4.125M6.18359 2.0625V4.125" stroke="#222222" stroke-width="1.14231" stroke-linecap="round" stroke-linejoin="round"/>
<path d="M10.9929 11.8936H11.0009M10.9929 15.4685H11.0009M14.5638 11.8936H14.5719M7.42188 11.8936H7.42989M7.42188 15.4685H7.42989" stroke="#222222" stroke-width="1.90385" stroke-linecap="round" stroke-linejoin="round"/>
<path d="M3.40039 7.4248H18.5941" stroke="#222222" stroke-width="1.14231" stroke-linecap="round" stroke-linejoin="round"/>
<path d="M2.50586 11.2172C2.50586 7.32285 2.50586 5.37568 3.62494 4.16587C4.74402 2.95605 6.54514 2.95605 10.1474 2.95605H11.8455C15.4478 2.95605 17.2489 2.95605 18.368 4.16587C19.4871 5.37568 19.4871 7.32285 19.4871 11.2172V11.6761C19.4871 15.5705 19.4871 17.5176 18.368 18.7274C17.2489 19.9373 15.4478 19.9373 11.8455 19.9373H10.1474C6.54514 19.9373 4.74402 19.9373 3.62494 18.7274C2.50586 17.5176 2.50586 15.5705 2.50586 11.6761V11.2172Z" stroke="#222222" stroke-width="1.14231" stroke-linecap="round" stroke-linejoin="round"/>
</svg>
