<svg width="20" height="18" viewBox="0 0 20 18" fill="none" xmlns="http://www.w3.org/2000/svg">
<path fill-rule="evenodd" clip-rule="evenodd" d="M15 1.34501V5.40562C15 5.82589 15.504 6.16698 16.125 6.16698C16.746 6.16698 17.25 5.82589 17.25 5.40562V1.34501C17.25 0.92474 16.746 0.583649 16.125 0.583649C15.504 0.583649 15 0.92474 15 1.34501Z" fill="#CF0B10"/>
<path fill-rule="evenodd" clip-rule="evenodd" d="M14.0949 4.49966H18.1555C18.5757 4.49966 18.9168 3.99566 18.9168 3.37466C18.9168 2.75366 18.5757 2.24966 18.1555 2.24966H14.0949C13.6746 2.24966 13.3335 2.75366 13.3335 3.37466C13.3335 3.99566 13.6746 4.49966 14.0949 4.49966Z" fill="#CF0B10"/>
<path fill-rule="evenodd" clip-rule="evenodd" d="M11.218 0.999664H6.92262C6.33928 0.999664 5.8061 1.33243 5.54566 1.85777L4.71245 3.53937C4.67462 3.61391 4.59895 3.66183 4.51536 3.66183H2.41957C1.08309 3.66183 0 4.7542 0 6.10214V14.976C0 15.6229 0.255155 16.2441 0.708275 16.702C1.16228 17.159 1.77817 17.4163 2.41957 17.4163H16.4971C17.1385 17.4163 17.7544 17.159 18.2084 16.702C18.6615 16.2441 18.9167 15.6229 18.9167 14.976C18.9167 12.2721 18.9167 7.43322 18.9167 7.43322C18.9167 7.06584 18.621 6.76768 18.2568 6.76768C17.8925 6.76768 17.5969 7.06584 17.5969 7.43322V14.976C17.5969 15.2706 17.4808 15.5519 17.2749 15.7605C17.0681 15.9681 16.7892 16.0852 16.4971 16.0852H2.41957C2.12747 16.0852 1.84855 15.9681 1.64179 15.7605C1.43591 15.5519 1.31977 15.2706 1.31977 14.976V6.10214C1.31977 5.48984 1.81248 4.99291 2.41957 4.99291H4.51536C5.0987 4.99291 5.63189 4.66014 5.89232 4.1348L6.72554 2.4532C6.76337 2.37866 6.83904 2.33075 6.92262 2.33075H11.218C11.5823 2.33075 11.8779 2.03258 11.8779 1.6652C11.8779 1.29783 11.5823 0.999664 11.218 0.999664Z" fill="#CF0B10"/>
<path fill-rule="evenodd" clip-rule="evenodd" d="M9.45833 5.58365C6.99733 5.58365 5 7.58098 5 10.042C5 12.503 6.99733 14.5003 9.45833 14.5003C11.9193 14.5003 13.9167 12.503 13.9167 10.042C13.9167 7.58098 11.9193 5.58365 9.45833 5.58365ZM9.45833 6.99154C11.1422 6.99154 12.5088 8.35814 12.5088 10.042C12.5088 11.7258 11.1422 13.0924 9.45833 13.0924C7.77449 13.0924 6.40789 11.7258 6.40789 10.042C6.40789 8.35814 7.77449 6.99154 9.45833 6.99154Z" fill="#CF0B10"/>
</svg>
