<svg width="20" height="20" viewBox="0 0 20 20" fill="none" xmlns="http://www.w3.org/2000/svg">
<path d="M10 13.3335C11.3807 13.3335 12.5 12.2142 12.5 10.8335C12.5 9.45278 11.3807 8.3335 10 8.3335C8.61929 8.3335 7.5 9.45278 7.5 10.8335C7.5 12.2142 8.61929 13.3335 10 13.3335Z" stroke="#CF0B10" stroke-width="1.25"/>
<path d="M8.14945 17.5H11.8531C14.4541 17.5 15.7545 17.5 16.6886 16.8872C17.093 16.6218 17.4402 16.2809 17.7105 15.8839C18.3346 14.9667 18.3346 13.6899 18.3346 11.1363C18.3346 8.58283 18.3346 7.30601 17.7105 6.38883C17.4402 5.99178 17.093 5.65087 16.6886 5.38557C16.0883 4.99177 15.3369 4.85102 14.1863 4.80072C13.6372 4.80072 13.1646 4.39223 13.0569 3.86363C12.8953 3.07074 12.1862 2.5 11.3627 2.5H8.63988C7.81634 2.5 7.10726 3.07074 6.94574 3.86363C6.83807 4.39223 6.36534 4.80072 5.8163 4.80072C4.66574 4.85102 3.91426 4.99177 3.314 5.38557C2.90959 5.65087 2.56237 5.99178 2.29215 6.38883C1.66797 7.30601 1.66797 8.58283 1.66797 11.1363C1.66797 13.6899 1.66797 14.9667 2.29215 15.8839C2.56237 16.2809 2.90959 16.6218 3.314 16.8872C4.24817 17.5 5.54859 17.5 8.14945 17.5Z" stroke="#CF0B10" stroke-width="1.25"/>
<path d="M15.8333 8.3335H15" stroke="#CF0B10" stroke-width="1.25" stroke-linecap="round"/>
</svg>
