<svg width="18" height="18" viewBox="0 0 18 18" fill="none" xmlns="http://www.w3.org/2000/svg">
<g clip-path="url(#clip0_2603_3553)">
<path fill-rule="evenodd" clip-rule="evenodd" d="M5.31836 0.40918C2.83308 0.40918 0.818359 2.4239 0.818359 4.90918V12.7842C0.818359 15.2695 2.83308 17.2842 5.31836 17.2842H13.1934C15.6787 17.2842 17.6934 15.2695 17.6934 12.7842V4.90918C17.6934 2.4239 15.6787 0.40918 13.1934 0.40918H5.31836ZM1.94336 4.90918C1.94336 3.04522 3.4544 1.53418 5.31836 1.53418H13.1934C15.0573 1.53418 16.5684 3.04522 16.5684 4.90918V12.7842C16.5684 14.6481 15.0573 16.1592 13.1934 16.1592H5.31836C3.4544 16.1592 1.94336 14.6481 1.94336 12.7842V4.90918Z" fill="#666666"/>
</g>
<defs>
<clipPath id="clip0_2603_3553">
<rect width="18" height="18" fill="white"/>
</clipPath>
</defs>
</svg>
