<svg width="18" height="18" viewBox="0 0 18 18" fill="none" xmlns="http://www.w3.org/2000/svg">
<g clip-path="url(#clip0_2603_3548)">
<path fill-rule="evenodd" clip-rule="evenodd" d="M0.5625 5.0625C0.5625 2.57722 2.57722 0.5625 5.0625 0.5625H12.9375C15.4228 0.5625 17.4375 2.57722 17.4375 5.0625V12.9375C17.4375 15.4228 15.4228 17.4375 12.9375 17.4375H5.0625C2.57722 17.4375 0.5625 15.4228 0.5625 12.9375V5.0625ZM13.0897 6.54604C13.2877 6.30669 13.2542 5.95212 13.0148 5.75409C12.7754 5.55607 12.4209 5.58959 12.2228 5.82896L8.01352 10.9171L5.78559 8.0894C5.59333 7.84536 5.23966 7.80339 4.99565 7.99566C4.75161 8.18792 4.70964 8.54159 4.90191 8.7856L7.56101 12.1606C7.6662 12.2941 7.82615 12.3729 7.99613 12.375C8.16612 12.377 8.3279 12.302 8.43626 12.171L13.0897 6.54604Z" fill="#020202"/>
</g>
<defs>
<clipPath id="clip0_2603_3548">
<rect width="18" height="18" fill="white"/>
</clipPath>
</defs>
</svg>
