<svg width="20" height="20" viewBox="0 0 20 20" fill="none" xmlns="http://www.w3.org/2000/svg">
<path d="M17.2887 2.77387C16.9632 2.44842 16.4356 2.44842 16.1102 2.77387L10.0315 8.85252L3.95286 2.77387C3.62743 2.44842 3.09979 2.44842 2.77435 2.77387C2.44891 3.0993 2.44891 3.62694 2.77435 3.95237L8.85299 10.031L2.77437 16.1096C2.44893 16.4351 2.44893 16.9627 2.77437 17.2882C3.0998 17.6136 3.62745 17.6136 3.95288 17.2882L10.0315 11.2095L16.1102 17.2882C16.4356 17.6136 16.9632 17.6136 17.2887 17.2882C17.6141 16.9627 17.6141 16.4351 17.2887 16.1097L11.21 10.031L17.2887 3.95237C17.6141 3.62694 17.6141 3.0993 17.2887 2.77387Z" fill="#0F0F0F"/>
</svg>
