<svg width="22" height="22" viewBox="0 0 22 22" fill="none" xmlns="http://www.w3.org/2000/svg">
<rect width="22" height="22" rx="11" fill="#E3E5E5"/>
<path fill-rule="evenodd" clip-rule="evenodd" d="M7.08754 7.08759C7.19693 6.97823 7.34528 6.9168 7.49996 6.9168C7.65464 6.9168 7.80298 6.97823 7.91238 7.08759L10.9999 10.1752L14.0875 7.08759C14.1414 7.03187 14.2057 6.98743 14.2769 6.95686C14.348 6.92629 14.4246 6.9102 14.502 6.90952C14.5795 6.90885 14.6563 6.92361 14.728 6.95294C14.7997 6.98227 14.8648 7.02559 14.9196 7.08036C14.9744 7.13513 15.0177 7.20026 15.047 7.27195C15.0763 7.34364 15.0911 7.42045 15.0904 7.49791C15.0897 7.57536 15.0736 7.65191 15.0431 7.72307C15.0125 7.79424 14.9681 7.85861 14.9124 7.91242L11.8248 11L14.9124 14.0876C15.0186 14.1976 15.0774 14.345 15.0761 14.4979C15.0748 14.6509 15.0134 14.7972 14.9052 14.9053C14.7971 15.0135 14.6508 15.0748 14.4978 15.0762C14.3449 15.0775 14.1975 15.0187 14.0875 14.9124L10.9999 11.8248L7.91238 14.9124C7.80236 15.0187 7.65501 15.0775 7.50206 15.0762C7.34911 15.0748 7.2028 15.0135 7.09465 14.9053C6.98649 14.7972 6.92514 14.6509 6.92382 14.4979C6.92249 14.345 6.98128 14.1976 7.08754 14.0876L10.1751 11L7.08754 7.91242C6.97818 7.80303 6.91675 7.65468 6.91675 7.5C6.91675 7.34532 6.97818 7.19698 7.08754 7.08759Z" fill="#222222"/>
</svg>
