<svg width="19" height="20" viewBox="0 0 19 20" fill="none" xmlns="http://www.w3.org/2000/svg">
<path fill-rule="evenodd" clip-rule="evenodd" d="M18.62 10.2159C18.62 9.54225 18.5595 8.89452 18.4473 8.27271H9.5V11.9475H14.6127C14.3925 13.135 13.7232 14.1411 12.717 14.8148V17.1984H15.7873C17.5836 15.5445 18.62 13.1091 18.62 10.2159Z" fill="#4285F4"/>
<path fill-rule="evenodd" clip-rule="evenodd" d="M9.50004 19.5001C12.065 19.5001 14.2155 18.6494 15.7873 17.1985L12.7171 14.8148C11.8664 15.3848 10.7782 15.7216 9.50004 15.7216C7.02573 15.7216 4.93141 14.0505 4.18436 11.8051H1.0105V14.2664C2.57368 17.3712 5.78641 19.5001 9.50004 19.5001Z" fill="#34A853"/>
<path fill-rule="evenodd" clip-rule="evenodd" d="M4.18432 11.805C3.99432 11.235 3.88636 10.6261 3.88636 10C3.88636 9.37387 3.99432 8.76501 4.18432 8.19501V5.73364H1.01045C0.367045 7.01614 0 8.46705 0 10C0 11.533 0.367045 12.9839 1.01045 14.2664L4.18432 11.805Z" fill="#FBBC05"/>
<path fill-rule="evenodd" clip-rule="evenodd" d="M9.50004 4.27841C10.8948 4.27841 12.1471 4.75773 13.1316 5.69909L15.8564 2.97432C14.2112 1.44136 12.0607 0.5 9.50004 0.5C5.78641 0.5 2.57368 2.62886 1.0105 5.73364L4.18436 8.195C4.93141 5.94955 7.02573 4.27841 9.50004 4.27841Z" fill="#EA4335"/>
</svg>
