<svg width="20" height="18" viewBox="0 0 20 18" fill="none" xmlns="http://www.w3.org/2000/svg">
<path d="M18.5756 10.5895L18.5701 10.5923C17.9122 11.0968 17.6335 11.9553 17.8676 12.7498L17.8704 12.7554C18.2439 14.0181 17.3185 15.2919 16.0028 15.3254H15.9972C15.1665 15.3477 14.4362 15.8773 14.1603 16.6606V16.6634C13.7198 17.9066 12.2202 18.3944 11.1359 17.6445C10.4626 17.1848 9.57247 17.1608 8.86407 17.6445H8.8613C7.777 18.3916 6.27733 17.9065 5.83969 16.6606C5.56125 15.8753 4.83201 15.3476 4.00276 15.3254H3.99717C2.68152 15.2919 1.75604 14.0181 2.12958 12.7553L2.13236 12.7498C2.36645 11.9553 2.08771 11.0968 1.42992 10.5923L1.42434 10.5895C0.379022 9.78666 0.379022 8.21457 1.42434 7.41178L1.42992 7.40901C2.08771 6.90449 2.36645 6.04593 2.12958 5.25151V5.24592C1.75323 3.98323 2.68148 2.70933 3.99717 2.67589H4.00276C4.83062 2.65359 5.56372 2.12396 5.83969 1.34071V1.33793C6.27729 0.0947338 7.777 -0.393062 8.8613 0.356793H8.86407C9.54698 0.827871 10.4501 0.827871 11.1359 0.356793C12.2311 -0.399547 13.7224 0.102193 14.1603 1.33793V1.34071C14.4362 2.12119 15.1665 2.65363 15.9972 2.67589H16.0028C17.3185 2.70933 18.2439 3.98323 17.8704 5.24592L17.8676 5.25151C17.6335 6.04593 17.9122 6.90449 18.5701 7.40901L18.5756 7.41178C19.621 8.21457 19.621 9.7867 18.5756 10.5895Z" fill="#2AA60F"/>
<path d="M9.99981 14.1926C12.8675 14.1926 15.1922 11.8679 15.1922 9.00024C15.1922 6.13258 12.8675 3.80789 9.99981 3.80789C7.13216 3.80789 4.80746 6.13258 4.80746 9.00024C4.80746 11.8679 7.13216 14.1926 9.99981 14.1926Z" fill="white"/>
<path d="M8.76414 11.0314L7.61593 9.80985C7.31523 9.48988 7.33075 8.98679 7.65061 8.68608C7.97047 8.385 8.47378 8.40116 8.77423 8.72091L9.32234 9.3038L11.6522 6.64092C11.9409 6.31045 12.4432 6.27694 12.774 6.56614C13.1044 6.85534 13.1378 7.35749 12.8488 7.68796L9.94159 11.0105C9.63189 11.3641 9.08532 11.3733 8.76414 11.0314Z" fill="#2AA60F"/>
</svg>
