<svg width="22" height="22" viewBox="0 0 22 22" fill="none" xmlns="http://www.w3.org/2000/svg">
<path d="M18.3335 2.75H3.66683C2.65431 2.75 1.8335 3.57081 1.8335 4.58333V17.4167C1.8335 18.4292 2.65431 19.25 3.66683 19.25H18.3335C19.346 19.25 20.1668 18.4292 20.1668 17.4167V4.58333C20.1668 3.57081 19.346 2.75 18.3335 2.75Z" fill="#FFD9D9"/>
<path d="M2.09934 15.5833L6.41685 11.2658C6.50206 11.1799 6.60345 11.1117 6.71515 11.0652C6.82685 11.0186 6.94667 10.9947 7.06768 10.9947C7.18869 10.9947 7.3085 11.0186 7.42021 11.0652C7.53191 11.1117 7.6333 11.1799 7.71851 11.2658L9.63435 13.1908L13.3652 9.45083C13.4504 9.36492 13.5518 9.29672 13.6635 9.25018C13.7752 9.20364 13.895 9.17969 14.016 9.17969C14.137 9.17969 14.2568 9.20364 14.3685 9.25018C14.4802 9.29672 14.5816 9.36492 14.6668 9.45083L19.901 14.6667C19.986 14.7523 20.0532 14.8539 20.0988 14.9656C20.1444 15.0773 20.1675 15.1969 20.1668 15.3175V17.4167C20.1668 17.9029 19.9737 18.3692 19.6299 18.713C19.2861 19.0568 18.8197 19.25 18.3335 19.25H3.66684C3.18061 19.25 2.7143 19.0568 2.37048 18.713C2.02667 18.3692 1.83351 17.9029 1.83351 17.4167V16.2342C1.83281 16.1135 1.85594 15.9939 1.90155 15.8823C1.94717 15.7706 2.01439 15.669 2.09934 15.5833ZM6.87518 6.875C6.87518 7.14695 6.95582 7.41279 7.10691 7.63891C7.25799 7.86503 7.47274 8.04126 7.72399 8.14533C7.97524 8.24941 8.2517 8.27663 8.51843 8.22358C8.78515 8.17053 9.03015 8.03957 9.22245 7.84727C9.41475 7.65497 9.5457 7.40997 9.59876 7.14325C9.65181 6.87653 9.62458 6.60006 9.52051 6.34881C9.41644 6.09756 9.2402 5.88282 9.01409 5.73173C8.78797 5.58064 8.52213 5.5 8.25018 5.5C7.88551 5.5 7.53577 5.64487 7.27791 5.90273C7.02004 6.16059 6.87518 6.51033 6.87518 6.875Z" fill="#CF0B10"/>
</svg>
