<svg width="102" height="81" viewBox="0 0 102 81" fill="none" xmlns="http://www.w3.org/2000/svg">
<g clip-path="url(#clip0_140_4218)">
<path d="M85.7668 77.4216C86.1662 77.4465 86.3868 76.9502 86.0845 76.6611L86.0544 76.5416C86.0583 76.532 86.0623 76.5225 86.0663 76.513C86.3045 75.9446 86.9605 75.6755 87.53 75.911C89.3307 76.6554 87.4296 78.3661 87.5725 79.5237C87.6226 79.9233 89.1876 79.9452 89.0991 80.3373C89.9313 78.5178 90.3689 76.531 90.3682 74.5332C90.368 74.0312 90.3404 73.5293 90.284 73.0286C90.2377 72.6191 90.1739 72.212 90.0913 71.8087C89.6448 69.6288 88.6789 67.5526 87.286 65.8187C86.6166 65.4531 87.0249 64.8811 86.6875 64.1957C86.5663 63.9485 85.4855 63.9429 85.4404 63.672C85.4888 63.6783 86.1875 62.9526 85.9567 62.5939C85.8048 62.3578 85.8521 62.0572 86.0472 61.8554C86.0663 61.8356 86.0844 61.8147 86.1009 61.7922C86.6772 61.0104 87.4716 61.1466 87.8866 62.2087C88.7727 62.6554 88.7815 63.3969 88.2382 64.1102C87.8925 64.564 87.8452 65.178 87.542 65.6638C87.5732 65.7037 87.6057 65.7424 87.6369 65.7824C88.2096 66.5164 88.705 67.3054 89.1226 68.1343C89.0044 67.2129 89.1781 66.1028 89.4748 65.3872C89.8149 64.5659 90.4548 63.875 91.0153 63.1646C91.6848 62.3162 93.0472 62.7012 93.1656 63.7754C93.1668 63.7857 93.1679 63.796 93.169 63.8063C93.0861 63.8531 93.0048 63.9029 92.9255 63.9554C92.4734 64.2547 92.6301 64.9557 93.166 65.0381L93.1781 65.04C93.1483 65.3384 92.0892 66.2786 92.0144 66.5695C92.7307 69.3357 92.1947 69.7009 89.991 69.7472L89.8754 69.9119C90.0842 70.5124 90.2523 71.1272 90.3785 71.7499C90.4973 72.328 90.5799 72.9124 90.6263 73.4992C90.684 74.2396 90.6793 74.9838 90.6171 75.7231L90.6208 75.6968C90.7791 74.8827 91.2209 74.1221 91.8625 73.5949C92.8183 72.8092 94.169 72.5195 95.2003 71.8879C95.6967 71.5838 96.3331 71.9763 96.2466 72.552L96.2424 72.5795C96.0888 72.642 95.939 72.7145 95.7942 72.7957C95.7113 72.8425 95.63 72.8923 95.5506 72.9449C95.0984 73.2442 95.2552 73.9454 95.7913 74.0275L95.8034 74.0293C95.8121 74.0306 95.8196 74.0318 95.8284 74.0331C95.5651 74.6587 93.057 75.5413 92.5977 76.0422C92.151 78.4583 92.3704 78.3864 90.3144 77.6835H90.3131C90.0887 78.6626 89.7606 79.6191 89.3389 80.5308L85.8552 80.532C85.8427 80.4933 85.8314 80.4533 85.8202 80.4146C86.1423 80.4345 86.467 80.4157 86.7841 80.3569C86.5255 80.0398 86.267 79.7202 86.0084 79.4032C86.0021 79.3969 85.9971 79.3907 85.9921 79.3844L85.9882 79.3796L85.6295 78.1989C85.6578 77.937 85.7041 77.6772 85.7668 77.4216Z" fill="#F2F2F2"/>
<path d="M48.9526 80.5043L18.1259 80.5149C16.5772 80.5155 15.19 79.7152 14.4152 78.3743C14.0278 77.7037 13.834 76.9682 13.8337 76.2324C13.8335 75.4968 14.0268 74.761 14.4137 74.0903L29.8173 46.049C30.5912 44.7075 31.9779 43.9063 33.5266 43.9058C35.0752 43.9053 36.4625 44.7054 37.2374 46.0464L52.6623 74.0806C53.0487 74.7493 53.242 75.484 53.242 76.2193C53.242 76.9545 53.0488 77.6902 52.6618 78.361C51.8879 79.7025 50.5012 80.5037 48.9526 80.5043ZM14.2212 76.2319C14.2212 76.9016 17.6228 75.4586 17.9752 76.0686C18.6801 77.2885 16.7168 80.1288 18.1258 80.1283C18.1258 80.1283 51.6228 79.3882 52.3269 78.1678C52.6789 77.5576 52.8548 76.8882 52.8545 76.2189C52.8543 75.5497 52.6779 74.8805 52.3254 74.2705L36.9005 46.2364C36.1976 45.02 34.9357 44.292 33.5267 44.2924C32.1184 44.2929 14.2213 75.5622 14.2212 76.2319Z" fill="#020202"/>
<path d="M49.2949 80.1172C48.9085 80.8906 67.0059 80.6529 67.2199 80.6529C67.2199 80.6529 72.3066 80.5405 72.4135 80.3552C72.467 80.2625 72.4937 80.1608 72.4936 80.0592C72.4936 79.9576 72.4668 79.856 72.4133 79.7633L70.0709 75.5062C69.9642 75.3215 69.7726 75.211 69.5586 75.211C69.5497 75.211 69.5366 75.2189 69.5196 75.2341C66.3949 78.0264 62.544 79.8724 58.3539 79.9347C53.8984 80.0009 49.3195 80.0681 49.2949 80.1172Z" fill="#020202"/>
<path d="M0.284668 80.6316C0.284712 80.7592 0.387214 80.8617 0.514813 80.8616L101.485 80.8267C101.613 80.8266 101.715 80.7242 101.715 80.5966C101.715 80.469 101.613 80.3665 101.485 80.3666L0.514655 80.4015C0.387056 80.4015 0.284624 80.504 0.284668 80.6316Z" fill="#CCCCCC"/>
<path d="M78.3634 79.5144L76.6149 79.5149L75.7808 72.7707L78.3615 72.77L78.3634 79.5144Z" fill="#A0616A"/>
<path d="M72.3725 79.4766C72.3181 79.5683 72.2895 79.8643 72.2896 79.9709C72.2897 80.2987 72.5555 80.5643 72.8832 80.5642L78.2983 80.5623C78.5219 80.5622 78.7031 80.3809 78.703 80.1573L78.7029 79.9318C78.7029 79.9318 78.9706 79.2542 78.4188 78.4192C78.4188 78.4192 77.7335 79.0734 76.7089 78.0495L76.4067 77.5024L74.2209 79.1022L73.0091 79.2518C72.7439 79.2845 72.5088 79.2469 72.3725 79.4766Z" fill="#020202"/>
<path d="M71.6587 73.7477L70.0024 74.3081L67.0522 68.1863L69.4968 67.3591L71.6587 73.7477Z" fill="#A0616A"/>
<path d="M65.9717 75.6309C65.9495 75.7352 66.0172 76.0247 66.0513 76.1257C66.1564 76.4362 66.4933 76.6027 66.8037 76.4976L71.933 74.7615C72.1448 74.6898 72.2584 74.46 72.1867 74.2482L72.1144 74.0347C72.1144 74.0347 72.1509 73.307 71.3607 72.6927C71.3607 72.6927 70.9211 73.5319 69.6226 72.8901L69.161 72.4686L67.6027 74.6842L66.5026 75.214C66.262 75.3299 66.0272 75.3696 65.9717 75.6309Z" fill="#020202"/>
<path d="M68.9576 34.6221L65.5661 45.8543L61.5623 55.9576L67.901 70.386L70.2514 69.3404L67.439 56.0862L73.3368 47.0923L76.089 75.1689L78.4396 75.0375L81.6274 41.1474L82.082 33.7687L68.9576 34.6221Z" fill="#020202"/>
<path d="M79.2008 9.73959L74.2386 10.6555L73.8476 12.8757L70.8444 14.3133L69.2829 30.638C69.2829 30.638 66.6722 34.0343 68.7621 35.0783L82.0822 33.7678C82.0822 33.7678 82.7343 31.3531 82.0813 31.124C81.4282 30.895 81.4262 25.1273 81.4262 25.1273L84.4258 13.2638L79.985 11.6982L79.2008 9.73959Z" fill="#E6E6E6"/>
<path d="M76.2742 9.69807C78.4873 9.69807 80.2813 7.90403 80.2813 5.69096C80.2813 3.47789 78.4873 1.68384 76.2742 1.68384C74.0611 1.68384 72.2671 3.47789 72.2671 5.69096C72.2671 7.90403 74.0611 9.69807 76.2742 9.69807Z" fill="#A0616A"/>
<path d="M78.9277 6.28536C78.6079 6.46042 78.9113 7.29619 78.7114 7.36844C78.4804 7.45196 77.6382 6.49324 77.6278 5.41941C77.6246 5.0944 77.6994 4.93835 77.6275 4.55301C77.5334 4.04895 77.2446 3.45444 76.9773 3.47023C76.8188 3.47958 76.6641 3.70361 76.6525 3.90354C76.6364 4.18374 76.9085 4.29403 76.8693 4.44497C76.7946 4.73246 75.6517 4.93094 75.2448 4.44553C74.9258 4.06497 75.1705 3.39681 75.0278 3.3626C74.9227 3.33738 74.8099 3.70525 74.3783 4.12093C74.2157 4.27754 73.9739 4.51045 73.8369 4.44602C73.639 4.3529 73.7828 3.69665 73.7283 3.68795C73.6833 3.68075 73.655 4.14201 73.4037 4.55447C73.081 5.08437 72.4151 5.49281 72.1044 5.31302C71.914 5.20287 71.899 4.89621 71.8876 4.66329C71.8635 4.17261 71.1504 3.04394 71.3349 2.51902C71.7104 1.45066 72.3537 2.20376 72.6447 1.84722C73.0386 1.36455 73.392 1.62406 74.0523 1.08863C74.6974 0.565566 74.703 0.0398442 75.135 0.00524717C75.524 -0.0259087 75.6623 0.389047 76.1098 0.329811C76.4889 0.27963 76.5713 -0.0422116 76.8678 0.00464594C77.1392 0.0475443 77.1571 0.33107 77.5177 0.437623C77.748 0.50565 77.7986 0.407188 78.0592 0.437436C78.6016 0.500374 78.9659 0.994366 79.0342 1.0869C79.2972 1.44363 79.1952 1.59407 79.4677 1.95315C79.7027 2.26282 80.2234 2.13132 80.4192 2.28598C81.0589 2.79135 81.3338 3.72333 81.3394 4.78557C81.3433 5.52853 81.2464 5.90391 81.0302 6.84169C80.8661 7.55377 80.1058 8.47398 79.6867 8.88431C79.5742 8.99446 79.2587 9.30325 79.037 9.20944C78.8268 9.12055 78.8205 8.72079 78.8202 8.66801C78.8192 8.48648 78.8676 8.26186 79.253 7.69316C79.6579 7.09578 79.8188 7.0276 79.7942 6.82656C79.7509 6.4712 79.1825 6.14583 78.9277 6.28536Z" fill="#020202"/>
<path d="M64.9499 43.6441C64.8252 44.6885 65.2629 45.5996 65.9276 45.6789C66.5922 45.7583 67.2321 44.976 67.3568 43.9315C67.4114 43.4743 67.3582 43.0427 67.2254 42.6952L67.6984 38.2629L65.6137 38.0853L65.3687 42.4735C65.1579 42.7799 65.0045 43.1869 64.9499 43.6441Z" fill="#A0616A"/>
<path d="M70.9423 14.2097C70.9423 14.2097 69.8623 14.225 69.1472 15.6217C68.7672 16.3638 66.7341 30.2422 66.7341 30.2422L64.8613 41.6113L68.0516 41.6273L70.5375 30.8606L72.6287 24.6161L70.9423 14.2097Z" fill="#E6E6E6"/>
<path d="M79.9199 41.9764C79.6144 42.983 79.886 43.9565 80.5265 44.1509C81.167 44.3453 81.9339 43.687 82.2394 42.6805C82.3731 42.2399 82.3963 41.8056 82.3263 41.4402L83.5673 37.159L81.5458 36.6194L80.537 40.8972C80.2758 41.162 80.0536 41.5359 79.9199 41.9764Z" fill="#A0616A"/>
<path d="M82.1404 13.4608C82.1404 13.4608 83.7071 12.2849 85.0137 14.1128C86.3203 15.9406 86.8478 30.9587 86.8478 30.9587L83.1944 40.2321L80.4517 39.3189L83.0596 27.9563L78.4858 19.3388L82.1404 13.4608Z" fill="#E6E6E6"/>
<path d="M42.5217 74.3206C50.3159 74.3206 56.6343 68.0022 56.6343 60.208C56.6343 52.4139 50.3159 46.0955 42.5217 46.0955C34.7276 46.0955 28.4092 52.4139 28.4092 60.208C28.4092 68.0022 34.7276 74.3206 42.5217 74.3206Z" fill="#CF0B10"/>
<path d="M42.5248 68.8581C43.2404 68.8581 43.8205 68.2779 43.8205 67.5623C43.8205 66.8467 43.2404 66.2665 42.5248 66.2665C41.8091 66.2665 41.229 66.8467 41.229 67.5623C41.229 68.2779 41.8091 68.8581 42.5248 68.8581Z" fill="white"/>
<path d="M42.5191 51.5569C42.4001 52.3478 42.6133 52.5133 42.6145 55.9231C42.6157 59.3329 43.3232 63.9046 42.5234 63.9049C41.7235 63.9051 41.431 54.4702 38.6537 53.6351C35.3883 52.6533 42.9044 48.9965 42.5191 51.5569Z" fill="white"/>
<path d="M23.5807 67.4115L22.3057 70.1055C23.8471 69.0002 26.2547 68.0474 28.1706 67.5371C26.3855 66.6748 24.2011 65.2845 22.8961 63.9081L23.6294 66.7546C15.0316 65.0034 8.85737 58.4076 8.85476 50.852L8.54419 50.7452C8.54692 58.6372 14.6357 65.6235 23.5807 67.4115Z" fill="#020202"/>
</g>
<defs>
<clipPath id="clip0_140_4218">
<rect width="101.431" height="80.8613" fill="white" transform="translate(0.284668)"/>
</clipPath>
</defs>
</svg>
