<svg width="26" height="26" viewBox="0 0 26 26" fill="none" xmlns="http://www.w3.org/2000/svg">
<path d="M13 20.7187C13.0656 20.7192 13.1303 20.7035 13.1884 20.6731C13.2465 20.6426 13.2962 20.5983 13.3331 20.5441C13.585 20.1784 19.5 11.5781 19.5 8.125C19.5 6.40109 18.8152 4.74779 17.5962 3.52881C16.3772 2.30982 14.7239 1.625 13 1.625C11.2761 1.625 9.62279 2.30982 8.40381 3.52881C7.18482 4.74779 6.5 6.40109 6.5 8.125C6.5 11.5781 12.415 20.1784 12.6669 20.5441C12.7038 20.5983 12.7535 20.6426 12.8116 20.6731C12.8697 20.7035 12.9344 20.7192 13 20.7187ZM9.34375 8.125C9.34375 7.40186 9.55819 6.69496 9.95994 6.0937C10.3617 5.49243 10.9327 5.0238 11.6008 4.74707C12.2689 4.47033 13.0041 4.39793 13.7133 4.539C14.4225 4.68008 15.074 5.0283 15.5854 5.53964C16.0967 6.05098 16.4449 6.70246 16.586 7.4117C16.7271 8.12094 16.6547 8.85609 16.3779 9.52419C16.1012 10.1923 15.6326 10.7633 15.0313 11.1651C14.43 11.5668 13.7231 11.7812 13 11.7812C12.0307 11.7798 11.1016 11.3941 10.4162 10.7088C9.73088 10.0234 9.3452 9.09425 9.34375 8.125Z" fill="#020202"/>
<path d="M11.0175 19.1709L10.0181 19.8372C9.96194 19.8742 9.91583 19.9245 9.88393 19.9837C9.85203 20.0429 9.83533 20.1091 9.83533 20.1764C9.83533 20.2437 9.85203 20.3099 9.88393 20.3691C9.91583 20.4283 9.96194 20.4786 10.0181 20.5156L12.7765 22.3519C12.8424 22.3969 12.9202 22.4209 13 22.4209C13.0797 22.4209 13.1576 22.3969 13.2234 22.3519L15.9819 20.5156C16.038 20.4786 16.0841 20.4283 16.116 20.3691C16.1479 20.3099 16.1646 20.2437 16.1646 20.1764C16.1646 20.1091 16.1479 20.0429 16.116 19.9837C16.0841 19.9245 16.038 19.8742 15.9819 19.8372L14.9825 19.1709C14.8159 19.4147 14.6615 19.6422 14.5234 19.8412L15.0272 20.1784L13 21.5272L10.9728 20.1784L11.4765 19.8412C11.3384 19.6422 11.184 19.4187 11.0175 19.1709Z" fill="#020202"/>
</svg>
