<svg width="22" height="22" viewBox="0 0 22 22" fill="none" xmlns="http://www.w3.org/2000/svg">
<path d="M18.15 12.2719L18.1431 12.2788C17.7719 12.7119 17.2012 12.9731 16.6031 12.9731C16.005 12.9731 15.4344 12.7119 15.0425 12.2581C13.9219 10.9863 11.275 7.7275 11.275 5.39688C11.275 4.86751 11.3506 4.34501 11.5019 3.85001C11.5569 3.67126 11.6187 3.49251 11.6944 3.32063C11.8181 3.02501 11.9762 2.74313 12.155 2.47501H7.57623L11.2612 11.275L15.1731 20.5838C17.6137 20.3569 19.525 18.2944 19.525 15.7988V10.5806C19.4219 10.7181 18.3287 12.0725 18.15 12.2719Z" fill="#1EA4E9"/>
<path d="M10.2644 12.4438L1.40936 16.1425C1.57436 18.6381 3.66436 20.6113 6.20124 20.6113H13.695L10.2644 12.4438Z" fill="#44C868"/>
<path d="M9.73498 11.1719L6.08436 2.48187C3.48561 2.53687 1.38873 4.675 1.38873 7.2875V14.6644L9.73498 11.1719Z" fill="#F1BA30"/>
<path d="M16.6031 1.43687C15.5788 1.43687 14.6506 1.82875 13.9494 2.475C13.53 2.84625 13.1863 3.32062 12.9594 3.85C12.76 4.32437 12.65 4.84687 12.65 5.39687C12.65 7.40438 15.7369 10.9656 16.0875 11.3644C16.2181 11.5156 16.4106 11.5981 16.6031 11.5981C16.8025 11.5981 16.9881 11.5156 17.1188 11.3644C17.2356 11.2338 17.6481 10.7594 18.15 10.1131C18.59 9.54937 19.0919 8.84812 19.525 8.13312C20.1094 7.17062 20.5631 6.16687 20.5631 5.39687C20.5631 3.21062 18.7894 1.43687 16.6031 1.43687ZM16.6031 6.08437C16.225 6.08437 15.9156 5.775 15.9156 5.39687C15.9156 5.01187 16.225 4.70937 16.6031 4.70937C16.9881 4.70937 17.2906 5.01187 17.2906 5.39687C17.2906 5.775 16.9881 6.08437 16.6031 6.08437Z" fill="#FF271B"/>
</svg>
