<svg width="22" height="22" viewBox="0 0 22 22" fill="none" xmlns="http://www.w3.org/2000/svg">
<g clip-path="url(#clip0_2804_5701)">
<path d="M2.74999 0.000976562H14.4326L20.625 6.16925V20.626C20.625 21.3857 20.009 22.001 19.25 22.001H2.74999C1.99097 22.001 1.375 21.3857 1.375 20.626V1.37596C1.375 0.616303 1.99104 0.000976562 2.74999 0.000976562Z" fill="#E2574C"/>
<path d="M20.6051 6.1884H15.8125C15.0535 6.1884 14.4375 5.57243 14.4375 4.81341V0.0146484L20.6051 6.1884Z" fill="#B53629"/>
<path d="M15.4673 10.4261C15.6977 10.4261 15.8104 10.2253 15.8104 10.0308C15.8104 9.82932 15.6928 9.63477 15.4673 9.63477H14.1556C13.8991 9.63477 13.7562 9.84718 13.7562 10.0816V13.3053C13.7562 13.5927 13.9198 13.7522 14.1411 13.7522C14.3612 13.7522 14.5255 13.5927 14.5255 13.3053V12.4205H15.3189C15.565 12.4205 15.6881 12.2191 15.6881 12.019C15.6881 11.8231 15.565 11.6285 15.3189 11.6285H14.5255V10.4261H15.4673ZM11.0336 9.63477H10.0739C9.81331 9.63477 9.62835 9.81353 9.62835 10.0789V13.3081C9.62835 13.6374 9.8944 13.7405 10.0848 13.7405H11.092C12.2841 13.7405 13.0713 12.9561 13.0713 11.7454C13.0707 10.4653 12.3296 9.63477 11.0336 9.63477ZM11.0797 12.9444H10.4946V10.4309H11.022C11.8202 10.4309 12.1673 10.9665 12.1673 11.7055C12.1673 12.3972 11.8263 12.9444 11.0797 12.9444ZM7.56385 9.63477H6.61304C6.34422 9.63477 6.19434 9.81211 6.19434 10.0816V13.3053C6.19434 13.5927 6.3662 13.7522 6.59718 13.7522C6.82816 13.7522 7.00002 13.5927 7.00002 13.3053V12.3641H7.59607C8.33169 12.3641 8.93876 11.843 8.93876 11.0049C8.93883 10.1848 8.3531 9.63477 7.56385 9.63477ZM7.54805 11.6079H7.00009V10.3917H7.54805C7.8863 10.3917 8.10149 10.6557 8.10149 11.0001C8.10078 11.3439 7.8863 11.6079 7.54805 11.6079Z" fill="white"/>
</g>
<defs>
<clipPath id="clip0_2804_5701">
<rect width="22" height="22" fill="white"/>
</clipPath>
</defs>
</svg>
