<svg width="19" height="18" viewBox="0 0 19 18" fill="none" xmlns="http://www.w3.org/2000/svg">
<g clip-path="url(#clip0_1_948)">
<path d="M3.74006 15.156C3.92006 15.156 3.95606 15.138 4.11806 15.102L7.35806 14.454C7.70006 14.364 8.04206 14.202 8.31206 13.932L16.1601 6.08398C17.3661 4.87798 17.3661 2.80798 16.1601 1.60198L15.4941 0.899983C14.2881 -0.306017 12.2001 -0.306017 10.9941 0.899983L3.14606 8.76598C2.89406 9.01798 2.71406 9.37798 2.62406 9.71998L1.94006 12.996C1.85006 13.608 2.03006 14.202 2.46206 14.634C2.80406 14.976 3.30806 15.156 3.74006 15.156ZM4.35206 10.062L12.2001 2.19598C12.7221 1.67398 13.6761 1.67398 14.1801 2.19598L14.8641 2.87998C15.4761 3.49198 15.4761 4.35598 14.8641 4.94998L7.03406 12.816L3.70406 13.374L4.35206 10.062Z" fill="#222222"/>
<path d="M16.0882 16.272H2.80419C2.28219 16.272 1.94019 16.614 1.94019 17.136C1.94019 17.658 2.37219 18 2.80419 18H16.0162C16.5382 18 16.9702 17.658 16.9702 17.136C16.9522 16.614 16.5202 16.272 16.0882 16.272Z" fill="#222222"/>
</g>
<defs>
<clipPath id="clip0_1_948">
<rect width="18" height="18" fill="white" transform="translate(0.5)"/>
</clipPath>
</defs>
</svg>
