<svg width="20" height="20" viewBox="0 0 20 20" fill="none" xmlns="http://www.w3.org/2000/svg">
<rect x="0.294118" y="0.294118" width="19.4118" height="19.4118" rx="9.70588" fill="white"/>
<rect x="0.294118" y="0.294118" width="19.4118" height="19.4118" rx="9.70588" stroke="#E6E6E6" stroke-width="0.588235"/>
<g clip-path="url(#clip0_140_5055)">
<path fill-rule="evenodd" clip-rule="evenodd" d="M13.5547 5.71137V7.67215C13.5547 7.87509 13.7194 8.0398 13.9223 8.0398C14.1253 8.0398 14.29 7.87509 14.29 7.67215V5.71137C14.29 5.50843 14.1253 5.34372 13.9223 5.34372C13.7194 5.34372 13.5547 5.50843 13.5547 5.71137Z" fill="#FF3434"/>
<path fill-rule="evenodd" clip-rule="evenodd" d="M12.9417 7.05902H14.9025C15.1055 7.05902 15.2702 6.89432 15.2702 6.69138C15.2702 6.48844 15.1055 6.32373 14.9025 6.32373H12.9417C12.7388 6.32373 12.5741 6.48844 12.5741 6.69138C12.5741 6.89432 12.7388 7.05902 12.9417 7.05902Z" fill="#FF3434"/>
<path fill-rule="evenodd" clip-rule="evenodd" d="M10.9812 5.58844H8.58803C8.26303 5.58844 7.96597 5.77226 7.82088 6.06246L7.35666 6.99138C7.33558 7.03256 7.29343 7.05903 7.24686 7.05903H6.07921C5.3346 7.05903 4.73117 7.66246 4.73117 8.40707V13.309C4.73117 13.6664 4.87333 14.0095 5.12578 14.2625C5.37872 14.5149 5.72186 14.6571 6.07921 14.6571H13.9223C14.2797 14.6571 14.6228 14.5149 14.8758 14.2625C15.1282 14.0095 15.2704 13.6664 15.2704 13.309C15.2704 11.8154 15.2704 9.14236 15.2704 9.14236C15.2704 8.93942 15.1057 8.77471 14.9027 8.77471C14.6998 8.77471 14.5351 8.93942 14.5351 9.14236V13.309C14.5351 13.4718 14.4704 13.6272 14.3557 13.7424C14.2405 13.8571 14.0851 13.9218 13.9223 13.9218H6.07921C5.91646 13.9218 5.76107 13.8571 5.64588 13.7424C5.53117 13.6272 5.46646 13.4718 5.46646 13.309V8.40707C5.46646 8.06883 5.74097 7.79432 6.07921 7.79432H7.24686C7.57186 7.79432 7.86892 7.6105 8.01401 7.3203L8.47823 6.39138C8.49931 6.3502 8.54147 6.32373 8.58803 6.32373H10.9812C11.1841 6.32373 11.3488 6.15903 11.3488 5.95609C11.3488 5.75315 11.1841 5.58844 10.9812 5.58844Z" fill="#FF3434"/>
<path fill-rule="evenodd" clip-rule="evenodd" d="M10.0008 8.28491C8.71547 8.28491 7.67233 9.32805 7.67233 10.6133C7.67233 11.8986 8.71547 12.9418 10.0008 12.9418C11.2861 12.9418 12.3292 11.8986 12.3292 10.6133C12.3292 9.32805 11.2861 8.28491 10.0008 8.28491ZM10.0008 9.02021C10.8802 9.02021 11.5939 9.73393 11.5939 10.6133C11.5939 11.4928 10.8802 12.2065 10.0008 12.2065C9.12135 12.2065 8.40763 11.4928 8.40763 10.6133C8.40763 9.73393 9.12135 9.02021 10.0008 9.02021Z" fill="#FF3434"/>
</g>
<defs>
<clipPath id="clip0_140_5055">
<rect width="11.7647" height="11.7647" fill="white" transform="translate(4.11765 4.11765)"/>
</clipPath>
</defs>
</svg>
