<svg width="24" height="24" viewBox="0 0 24 24" fill="none" xmlns="http://www.w3.org/2000/svg">
<path d="M18.25 3.75H20.75C20.93 3.75 21.0776 3.80895 21.165 3.87891C21.2462 3.94389 21.2499 3.99255 21.25 4V20.25H17.75V4C17.7501 3.99255 17.7538 3.94389 17.835 3.87891C17.9224 3.80895 18.07 3.75 18.25 3.75ZM10.75 9.75293H13.25C13.4298 9.75293 13.5776 9.81101 13.665 9.88086C13.7473 9.94668 13.75 9.99645 13.75 10.0029V20.25H10.25V10.0029C10.25 9.99645 10.2527 9.94668 10.335 9.88086C10.4224 9.81101 10.5702 9.75293 10.75 9.75293ZM3.25 15.7549H5.75C5.92989 15.7549 6.07761 15.8139 6.16504 15.8838C6.2481 15.9503 6.25 16.0002 6.25 16.0059V20.25H2.75V16.0059C2.75 16.0002 2.7519 15.9503 2.83496 15.8838C2.92239 15.8139 3.07011 15.7549 3.25 15.7549Z" fill="#CF0B10" stroke="#CF0B10" stroke-width="1.5"/>
</svg>
