<svg width="22" height="22" viewBox="0 0 22 22" fill="none" xmlns="http://www.w3.org/2000/svg">
<path d="M18.7456 18.0975L15.1647 14.5166C16.2638 13.2634 16.8702 11.6776 16.8702 9.99516C16.8702 8.15869 16.1549 6.43233 14.8565 5.13387C13.558 3.83541 11.8316 3.12016 9.99518 3.12016C8.15871 3.12016 6.43235 3.83541 5.13389 5.13387C3.83543 6.43233 3.12018 8.15869 3.12018 9.99516C3.12018 11.8316 3.83543 13.558 5.13389 14.8564C6.43235 16.1549 8.15871 16.8702 9.99518 16.8702C11.6776 16.8702 13.2634 16.2638 14.5166 15.1647L18.0975 18.7456C18.187 18.8351 18.3043 18.8798 18.4215 18.8798C18.5388 18.8798 18.6561 18.8351 18.7456 18.7456C18.9246 18.5665 18.9246 18.2765 18.7456 18.0975ZM5.782 14.2083C4.65676 13.0829 4.03684 11.5866 4.03684 9.99516C4.03684 8.40375 4.65676 6.90745 5.782 5.78198C6.90747 4.65674 8.40377 4.03682 9.99518 4.03682C11.5866 4.03682 13.0829 4.65674 14.2084 5.78198C15.3336 6.90745 15.9535 8.40375 15.9535 9.99516C15.9535 11.5866 15.3336 13.0829 14.2084 14.2083C13.0829 15.3336 11.5866 15.9535 9.99518 15.9535C8.40377 15.9535 6.90747 15.3336 5.782 14.2083Z" fill="#020202"/>
</svg>
