<svg width="25" height="25" viewBox="0 0 25 25" fill="none" xmlns="http://www.w3.org/2000/svg">
<path d="M0 24.9998L1.75728 18.5801C0.672912 16.7009 0.103124 14.5707 0.104166 12.3864C0.107291 5.55726 5.66455 0 12.4926 0C15.8061 0.00104166 18.9165 1.29166 21.2561 3.63331C23.5946 5.97496 24.8821 9.08744 24.8811 12.3978C24.878 19.228 19.3207 24.7853 12.4926 24.7853C10.4197 24.7842 8.37703 24.2644 6.56767 23.2769L0 24.9998ZM6.87183 21.0342C8.61765 22.0707 10.2843 22.6915 12.4885 22.6926C18.1634 22.6926 22.7863 18.0738 22.7894 12.3958C22.7915 6.70621 18.1905 2.09374 12.4968 2.09165C6.81766 2.09165 2.1979 6.71037 2.19582 12.3874C2.19478 14.7051 2.87394 16.4405 4.01456 18.2561L2.97394 22.0561L6.87183 21.0342ZM18.7332 15.3426C18.6561 15.2134 18.4499 15.1364 18.1395 14.9812C17.8301 14.8259 16.3082 14.077 16.0239 13.9739C15.7405 13.8707 15.5343 13.8187 15.327 14.1291C15.1207 14.4384 14.527 15.1364 14.3468 15.3426C14.1666 15.5489 13.9853 15.5749 13.676 15.4197C13.3666 15.2645 12.3687 14.9384 11.1864 13.8832C10.2666 13.0624 9.64473 12.0489 9.46452 11.7385C9.28431 11.4291 9.44577 11.2614 9.59994 11.1072C9.73952 10.9687 9.90931 10.7458 10.0645 10.5645C10.2218 10.3854 10.2729 10.2562 10.377 10.0489C10.4801 9.84265 10.4291 9.6614 10.351 9.50619C10.2729 9.35202 9.6541 7.82807 9.39681 7.20829C9.14473 6.60517 8.88953 6.68642 8.69994 6.67704L8.1062 6.66662C7.89995 6.66662 7.56453 6.74371 7.2812 7.05412C6.99787 7.36454 6.19788 8.11245 6.19788 9.6364C6.19788 11.1603 7.30724 12.6322 7.46141 12.8385C7.61662 13.0447 9.64369 16.1718 12.7489 17.5124C13.4874 17.8311 14.0645 18.0218 14.5134 18.1645C15.2551 18.3999 15.9301 18.3665 16.4634 18.2874C17.0582 18.1988 18.2947 17.5384 18.553 16.8155C18.8113 16.0916 18.8113 15.4718 18.7332 15.3426Z" fill="#25D366"/>
</svg>
